<svg width="340" height="483" viewBox="0 0 340 483" fill="none" xmlns="http://www.w3.org/2000/svg">
<g opacity="0.93">
<path d="M337.336 106.149C335.877 106.149 334.688 107.339 334.688 108.798C334.688 110.272 335.877 111.446 337.336 111.446C338.795 111.446 339.984 110.256 339.984 108.798C340 107.339 338.811 106.149 337.336 106.149Z" fill="#BCBDBB"/>
<path d="M337.336 93.7647C338.795 93.7647 339.984 92.5754 339.984 91.1165C339.984 89.6576 338.795 88.4683 337.336 88.4683C335.877 88.4683 334.688 89.6576 334.688 91.1165C334.688 92.5754 335.877 93.7647 337.336 93.7647Z" fill="#BCBDBB"/>
<path d="M328.486 102.613C329.949 102.613 331.135 101.427 331.135 99.9649C331.135 98.5024 329.949 97.3167 328.486 97.3167C327.024 97.3167 325.838 98.5024 325.838 99.9649C325.838 101.427 327.024 102.613 328.486 102.613Z" fill="#BCBDBB"/>
<path d="M310.805 79.6199C309.346 79.6199 308.156 80.8092 308.156 82.2681C308.156 83.7428 309.346 84.9163 310.805 84.9163C312.264 84.9163 313.453 83.727 313.453 82.2681C313.453 80.8092 312.264 79.6199 310.805 79.6199Z" fill="#BCBDBB"/>
<path d="M310.805 61.9231C309.346 61.9231 308.156 63.1124 308.156 64.5713C308.156 66.046 309.346 67.2194 310.805 67.2194C312.264 67.2194 313.453 66.0301 313.453 64.5713C313.453 63.1124 312.264 61.9231 310.805 61.9231Z" fill="#BCBDBB"/>
<path d="M301.955 70.7715C300.496 70.7715 299.307 71.9608 299.307 73.4197C299.307 74.8944 300.496 76.0679 301.955 76.0679C303.414 76.0679 304.603 74.8786 304.603 73.4197C304.603 71.9608 303.414 70.7715 301.955 70.7715Z" fill="#BCBDBB"/>
<path d="M293.105 79.6199C291.646 79.6199 290.457 80.8092 290.457 82.2681C290.457 83.7428 291.646 84.9163 293.105 84.9163C294.564 84.9163 295.754 83.727 295.754 82.2681C295.754 80.8092 294.564 79.6199 293.105 79.6199Z" fill="#BCBDBB"/>
<path d="M310.805 97.3009C309.346 97.3009 308.156 98.4902 308.156 99.9491C308.156 101.424 309.346 102.597 310.805 102.597C312.264 102.597 313.453 101.408 313.453 99.9491C313.453 98.4902 312.264 97.3009 310.805 97.3009Z" fill="#BCBDBB"/>
<path d="M319.654 106.149C318.195 106.149 317.006 107.339 317.006 108.798C317.006 110.272 318.195 111.446 319.654 111.446C321.113 111.446 322.303 110.256 322.303 108.798C322.303 107.339 321.113 106.149 319.654 106.149Z" fill="#BCBDBB"/>
<path d="M301.955 106.149C300.496 106.149 299.307 107.339 299.307 108.798C299.307 110.272 300.496 111.446 301.955 111.446C303.414 111.446 304.603 110.256 304.603 108.798C304.603 107.339 303.414 106.149 301.955 106.149Z" fill="#BCBDBB"/>
<path d="M319.654 88.4683C318.195 88.4683 317.006 89.6576 317.006 91.1165C317.006 92.5913 318.195 93.7647 319.654 93.7647C321.113 93.7647 322.303 92.5754 322.303 91.1165C322.303 89.6418 321.113 88.4683 319.654 88.4683Z" fill="#BCBDBB"/>
<path d="M301.955 88.4683C300.496 88.4683 299.307 89.6576 299.307 91.1165C299.307 92.5913 300.496 93.7647 301.955 93.7647C303.414 93.7647 304.603 92.5754 304.603 91.1165C304.603 89.6418 303.414 88.4683 301.955 88.4683Z" fill="#BCBDBB"/>
<path d="M293.105 114.998C291.646 114.998 290.457 116.187 290.457 117.646C290.457 119.121 291.646 120.294 293.105 120.294C294.564 120.294 295.754 119.105 295.754 117.646C295.754 116.187 294.564 114.998 293.105 114.998Z" fill="#BCBDBB"/>
<path d="M293.105 97.3009C291.646 97.3009 290.457 98.4902 290.457 99.9491C290.457 101.424 291.646 102.597 293.105 102.597C294.564 102.597 295.754 101.408 295.754 99.9491C295.754 98.4902 294.564 97.3009 293.105 97.3009Z" fill="#BCBDBB"/>
<path d="M301.955 389.235C300.496 389.235 299.307 390.425 299.307 391.884C299.307 393.358 300.496 394.532 301.955 394.532C303.414 394.532 304.603 393.342 304.603 391.884C304.603 390.425 303.414 389.235 301.955 389.235Z" fill="#BCBDBB"/>
<path d="M293.105 398.084C291.646 398.084 290.457 399.273 290.457 400.732C290.457 402.207 291.646 403.38 293.105 403.38C294.564 403.38 295.754 402.191 295.754 400.732C295.754 399.273 294.564 398.084 293.105 398.084Z" fill="#BCBDBB"/>
<path d="M310.805 415.765C309.346 415.765 308.156 416.954 308.156 418.413C308.156 419.888 309.346 421.061 310.805 421.061C312.264 421.061 313.453 419.872 313.453 418.413C313.453 416.954 312.264 415.765 310.805 415.765Z" fill="#BCBDBB"/>
<path d="M301.955 424.613C300.496 424.613 299.307 425.802 299.307 427.261C299.307 428.736 300.496 429.909 301.955 429.909C303.414 429.909 304.603 428.72 304.603 427.261C304.603 425.802 303.414 424.613 301.955 424.613Z" fill="#BCBDBB"/>
<path d="M301.955 406.932C300.496 406.932 299.307 408.121 299.307 409.58C299.307 411.055 300.496 412.228 301.955 412.228C303.414 412.228 304.603 411.039 304.603 409.58C304.603 408.106 303.414 406.932 301.955 406.932Z" fill="#BCBDBB"/>
<path d="M293.105 433.462C291.646 433.462 290.457 434.651 290.457 436.11C290.457 437.584 291.646 438.758 293.105 438.758C294.564 438.758 295.754 437.569 295.754 436.11C295.754 434.651 294.564 433.462 293.105 433.462Z" fill="#BCBDBB"/>
<path d="M275.408 79.6199C273.949 79.6199 272.76 80.8092 272.76 82.2681C272.76 83.7428 273.949 84.9163 275.408 84.9163C276.867 84.9163 278.057 83.727 278.057 82.2681C278.072 80.8092 276.883 79.6199 275.408 79.6199Z" fill="#BCBDBB"/>
<path d="M284.258 70.7715C282.799 70.7715 281.609 71.9608 281.609 73.4197C281.609 74.8944 282.799 76.0679 284.258 76.0679C285.717 76.0679 286.906 74.8786 286.906 73.4197C286.906 71.9608 285.733 70.7715 284.258 70.7715Z" fill="#BCBDBB"/>
<path d="M266.559 70.7715C265.1 70.7715 263.91 71.9608 263.91 73.4197C263.91 74.8944 265.1 76.0679 266.559 76.0679C268.018 76.0679 269.207 74.8786 269.207 73.4197C269.223 71.9608 268.033 70.7715 266.559 70.7715Z" fill="#BCBDBB"/>
<path d="M257.726 79.6199C256.267 79.6199 255.078 80.8092 255.078 82.2681C255.078 83.7428 256.267 84.9163 257.726 84.9163C259.185 84.9163 260.375 83.727 260.375 82.2681C260.375 80.8092 259.185 79.6199 257.726 79.6199Z" fill="#BCBDBB"/>
<path d="M275.408 114.998C273.949 114.998 272.76 116.187 272.76 117.646C272.76 119.121 273.949 120.294 275.408 120.294C276.867 120.294 278.057 119.105 278.057 117.646C278.072 116.187 276.883 114.998 275.408 114.998Z" fill="#BCBDBB"/>
<path d="M278.069 100.024C278.086 98.562 276.914 97.3626 275.452 97.3457C273.989 97.3287 272.79 98.5005 272.773 99.9629C272.756 101.425 273.928 102.625 275.39 102.642C276.853 102.659 278.052 101.487 278.069 100.024Z" fill="#BCBDBB"/>
<path d="M284.258 106.149C282.799 106.149 281.609 107.339 281.609 108.798C281.609 110.272 282.799 111.446 284.258 111.446C285.717 111.446 286.906 110.256 286.906 108.798C286.906 107.339 285.733 106.149 284.258 106.149Z" fill="#BCBDBB"/>
<path d="M266.559 111.462C268.021 111.462 269.207 110.276 269.207 108.813C269.207 107.351 268.021 106.165 266.559 106.165C265.096 106.165 263.91 107.351 263.91 108.813C263.91 110.276 265.096 111.462 266.559 111.462Z" fill="#BCBDBB"/>
<path d="M284.258 88.4683C282.799 88.4683 281.609 89.6576 281.609 91.1165C281.609 92.5913 282.799 93.7647 284.258 93.7647C285.717 93.7647 286.906 92.5754 286.906 91.1165C286.906 89.6418 285.733 88.4683 284.258 88.4683Z" fill="#BCBDBB"/>
<path d="M266.559 88.4683C265.1 88.4683 263.91 89.6576 263.91 91.1165C263.91 92.5913 265.1 93.7647 266.559 93.7647C268.018 93.7647 269.207 92.5754 269.207 91.1165C269.223 89.6418 268.033 88.4683 266.559 88.4683Z" fill="#BCBDBB"/>
<path d="M257.726 114.998C256.267 114.998 255.078 116.187 255.078 117.646C255.078 119.121 256.267 120.294 257.726 120.294C259.185 120.294 260.375 119.105 260.375 117.646C260.375 116.187 259.185 114.998 257.726 114.998Z" fill="#BCBDBB"/>
<path d="M257.726 97.3009C256.267 97.3009 255.078 98.4902 255.078 99.9491C255.078 101.424 256.267 102.597 257.726 102.597C259.185 102.597 260.375 101.408 260.375 99.9491C260.375 98.4902 259.185 97.3009 257.726 97.3009Z" fill="#BCBDBB"/>
<path d="M266.559 141.543C265.1 141.543 263.91 142.732 263.91 144.191C263.91 145.666 265.1 146.839 266.559 146.839C268.018 146.839 269.207 145.65 269.207 144.191C269.223 142.732 268.033 141.543 266.559 141.543Z" fill="#BCBDBB"/>
<path d="M266.559 129.143C268.021 129.143 269.207 127.957 269.207 126.494C269.207 125.032 268.021 123.846 266.559 123.846C265.096 123.846 263.91 125.032 263.91 126.494C263.91 127.957 265.096 129.143 266.559 129.143Z" fill="#BCBDBB"/>
<path d="M257.726 150.391C256.267 150.391 255.078 151.581 255.078 153.04C255.078 154.514 256.267 155.688 257.726 155.688C259.185 155.688 260.375 154.498 260.375 153.04C260.375 151.581 259.185 150.391 257.726 150.391Z" fill="#BCBDBB"/>
<path d="M257.726 132.695C256.267 132.695 255.078 133.884 255.078 135.343C255.078 136.817 256.267 137.991 257.726 137.991C259.185 137.991 260.375 136.802 260.375 135.343C260.375 133.884 259.185 132.695 257.726 132.695Z" fill="#BCBDBB"/>
<path d="M284.258 389.235C282.799 389.235 281.609 390.425 281.609 391.884C281.609 393.358 282.799 394.532 284.258 394.532C285.717 394.532 286.906 393.342 286.906 391.884C286.906 390.425 285.733 389.235 284.258 389.235Z" fill="#BCBDBB"/>
<path d="M284.258 442.31C282.799 442.31 281.609 443.499 281.609 444.958C281.609 446.433 282.799 447.606 284.258 447.606C285.717 447.606 286.906 446.417 286.906 444.958C286.906 443.499 285.733 442.31 284.258 442.31Z" fill="#BCBDBB"/>
<path d="M240.027 44.2262C238.568 44.2262 237.379 45.4155 237.379 46.8744C237.379 48.3492 238.568 49.5226 240.027 49.5226C241.486 49.5226 242.676 48.3333 242.676 46.8744C242.676 45.4155 241.486 44.2262 240.027 44.2262Z" fill="#BCBDBB"/>
<path d="M222.33 44.2262C220.871 44.2262 219.682 45.4155 219.682 46.8744C219.682 48.3492 220.871 49.5226 222.33 49.5226C223.789 49.5226 224.978 48.3333 224.978 46.8744C224.978 45.4155 223.805 44.2262 222.33 44.2262Z" fill="#BCBDBB"/>
<path d="M240.027 79.6199C238.568 79.6199 237.379 80.8092 237.379 82.2681C237.379 83.7428 238.568 84.9163 240.027 84.9163C241.486 84.9163 242.676 83.727 242.676 82.2681C242.676 80.8092 241.486 79.6199 240.027 79.6199Z" fill="#BCBDBB"/>
<path d="M240.027 61.9231C238.568 61.9231 237.379 63.1124 237.379 64.5713C237.379 66.046 238.568 67.2194 240.027 67.2194C241.486 67.2194 242.676 66.0301 242.676 64.5713C242.676 63.1124 241.486 61.9231 240.027 61.9231Z" fill="#BCBDBB"/>
<path d="M248.877 70.7715C247.418 70.7715 246.229 71.9608 246.229 73.4197C246.229 74.8944 247.418 76.0679 248.877 76.0679C250.336 76.0679 251.525 74.8786 251.525 73.4197C251.525 71.9608 250.336 70.7715 248.877 70.7715Z" fill="#BCBDBB"/>
<path d="M231.178 70.7715C229.719 70.7715 228.529 71.9608 228.529 73.4197C228.529 74.8944 229.719 76.0679 231.178 76.0679C232.637 76.0679 233.826 74.8786 233.826 73.4197C233.826 71.9608 232.637 70.7715 231.178 70.7715Z" fill="#BCBDBB"/>
<path d="M233.84 55.7906C233.856 54.3282 232.684 53.1294 231.221 53.113C229.759 53.0966 228.56 54.2689 228.543 55.7313C228.527 57.1937 229.699 58.3925 231.162 58.4088C232.624 58.4252 233.823 57.253 233.84 55.7906Z" fill="#BCBDBB"/>
<path d="M222.33 79.6199C220.871 79.6199 219.682 80.8092 219.682 82.2681C219.682 83.7428 220.871 84.9163 222.33 84.9163C223.789 84.9163 224.978 83.727 224.978 82.2681C224.978 80.8092 223.805 79.6199 222.33 79.6199Z" fill="#BCBDBB"/>
<path d="M222.33 61.9231C220.871 61.9231 219.682 63.1124 219.682 64.5713C219.682 66.046 220.871 67.2194 222.33 67.2194C223.789 67.2194 224.978 66.0301 224.978 64.5713C224.978 63.1124 223.805 61.9231 222.33 61.9231Z" fill="#BCBDBB"/>
<path d="M240.027 114.998C238.568 114.998 237.379 116.187 237.379 117.646C237.379 119.121 238.568 120.294 240.027 120.294C241.486 120.294 242.676 119.105 242.676 117.646C242.676 116.187 241.486 114.998 240.027 114.998Z" fill="#BCBDBB"/>
<path d="M240.027 97.3009C238.568 97.3009 237.379 98.4902 237.379 99.9491C237.379 101.424 238.568 102.597 240.027 102.597C241.486 102.597 242.676 101.408 242.676 99.9491C242.676 98.4902 241.486 97.3009 240.027 97.3009Z" fill="#BCBDBB"/>
<path d="M251.517 108.853C251.535 107.391 250.364 106.19 248.901 106.172C247.439 106.154 246.238 107.325 246.22 108.787C246.202 110.25 247.373 111.45 248.836 111.468C250.298 111.486 251.498 110.316 251.517 108.853Z" fill="#BCBDBB"/>
<path d="M233.851 108.869C233.868 107.407 232.695 106.208 231.233 106.192C229.77 106.176 228.571 107.348 228.555 108.81C228.539 110.273 229.711 111.471 231.174 111.488C232.636 111.504 233.835 110.332 233.851 108.869Z" fill="#BCBDBB"/>
<path d="M248.877 88.4683C247.418 88.4683 246.229 89.6576 246.229 91.1165C246.229 92.5913 247.418 93.7647 248.877 93.7647C250.336 93.7647 251.525 92.5754 251.525 91.1165C251.525 89.6418 250.336 88.4683 248.877 88.4683Z" fill="#BCBDBB"/>
<path d="M231.178 88.4683C229.719 88.4683 228.529 89.6576 228.529 91.1165C228.529 92.5913 229.719 93.7647 231.178 93.7647C232.637 93.7647 233.826 92.5754 233.826 91.1165C233.826 89.6418 232.637 88.4683 231.178 88.4683Z" fill="#BCBDBB"/>
<path d="M222.33 114.998C220.871 114.998 219.682 116.187 219.682 117.646C219.682 119.121 220.871 120.294 222.33 120.294C223.789 120.294 224.978 119.105 224.978 117.646C224.978 116.187 223.805 114.998 222.33 114.998Z" fill="#BCBDBB"/>
<path d="M222.33 97.3009C220.871 97.3009 219.682 98.4902 219.682 99.9491C219.682 101.424 220.871 102.597 222.33 102.597C223.789 102.597 224.978 101.408 224.978 99.9491C224.978 98.4902 223.805 97.3009 222.33 97.3009Z" fill="#BCBDBB"/>
<path d="M248.877 141.543C247.418 141.543 246.229 142.732 246.229 144.191C246.229 145.666 247.418 146.839 248.877 146.839C250.336 146.839 251.525 145.65 251.525 144.191C251.525 142.732 250.336 141.543 248.877 141.543Z" fill="#BCBDBB"/>
<path d="M251.505 126.545C251.523 125.083 250.352 123.882 248.89 123.864C247.427 123.846 246.227 125.017 246.209 126.479C246.19 127.942 247.361 129.142 248.824 129.16C250.286 129.178 251.487 128.008 251.505 126.545Z" fill="#BCBDBB"/>
<path d="M222.33 150.391C220.871 150.391 219.682 151.581 219.682 153.04C219.682 154.514 220.871 155.688 222.33 155.688C223.789 155.688 224.978 154.498 224.978 153.04C224.978 151.581 223.805 150.391 222.33 150.391Z" fill="#BCBDBB"/>
<path d="M222.33 185.769C220.871 185.769 219.682 186.959 219.682 188.417C219.682 189.892 220.871 191.066 222.33 191.066C223.789 191.066 224.978 189.876 224.978 188.417C224.978 186.959 223.805 185.769 222.33 185.769Z" fill="#BCBDBB"/>
<path d="M222.33 168.072C220.871 168.072 219.682 169.262 219.682 170.721C219.682 172.195 220.871 173.369 222.33 173.369C223.789 173.369 224.978 172.179 224.978 170.721C224.978 169.262 223.805 168.072 222.33 168.072Z" fill="#BCBDBB"/>
<path d="M240.027 327.312C238.568 327.312 237.379 328.502 237.379 329.96C237.379 331.435 238.568 332.609 240.027 332.609C241.486 332.609 242.676 331.419 242.676 329.96C242.676 328.502 241.486 327.312 240.027 327.312Z" fill="#BCBDBB"/>
<path d="M240.027 309.615C238.568 309.615 237.379 310.805 237.379 312.264C237.379 313.738 238.568 314.912 240.027 314.912C241.486 314.912 242.676 313.722 242.676 312.264C242.676 310.805 241.486 309.615 240.027 309.615Z" fill="#BCBDBB"/>
<path d="M251.501 321.16C251.519 319.697 250.348 318.497 248.886 318.479C247.423 318.461 246.223 319.631 246.205 321.094C246.187 322.556 247.357 323.756 248.82 323.775C250.283 323.793 251.483 322.622 251.501 321.16Z" fill="#BCBDBB"/>
<path d="M233.834 321.184C233.85 319.722 232.678 318.523 231.215 318.506C229.753 318.49 228.554 319.662 228.537 321.125C228.521 322.587 229.693 323.786 231.156 323.802C232.618 323.819 233.817 322.646 233.834 321.184Z" fill="#BCBDBB"/>
<path d="M222.33 327.312C220.871 327.312 219.682 328.502 219.682 329.96C219.682 331.435 220.871 332.609 222.33 332.609C223.789 332.609 224.978 331.419 224.978 329.96C224.978 328.502 223.805 327.312 222.33 327.312Z" fill="#BCBDBB"/>
<path d="M222.33 309.615C220.871 309.615 219.682 310.805 219.682 312.264C219.682 313.738 220.871 314.912 222.33 314.912C223.789 314.912 224.978 313.722 224.978 312.264C224.978 310.805 223.805 309.615 222.33 309.615Z" fill="#BCBDBB"/>
<path d="M240.027 362.69C238.568 362.69 237.379 363.879 237.379 365.338C237.379 366.813 238.568 367.986 240.027 367.986C241.486 367.986 242.676 366.797 242.676 365.338C242.676 363.879 241.486 362.69 240.027 362.69Z" fill="#BCBDBB"/>
<path d="M233.842 356.57C233.858 355.108 232.686 353.909 231.223 353.892C229.761 353.876 228.562 355.048 228.545 356.511C228.529 357.973 229.701 359.172 231.164 359.188C232.626 359.205 233.825 358.032 233.842 356.57Z" fill="#BCBDBB"/>
<path d="M222.33 362.69C220.871 362.69 219.682 363.879 219.682 365.338C219.682 366.813 220.871 367.986 222.33 367.986C223.789 367.986 224.978 366.797 224.978 365.338C224.978 363.879 223.805 362.69 222.33 362.69Z" fill="#BCBDBB"/>
<path d="M222.33 345.009C220.871 345.009 219.682 346.198 219.682 347.657C219.682 349.132 220.871 350.305 222.33 350.305C223.789 350.305 224.978 349.116 224.978 347.657C224.978 346.183 223.805 345.009 222.33 345.009Z" fill="#BCBDBB"/>
<path d="M240.027 398.084C238.568 398.084 237.379 399.273 237.379 400.732C237.379 402.207 238.568 403.38 240.027 403.38C241.486 403.38 242.676 402.191 242.676 400.732C242.676 399.273 241.486 398.084 240.027 398.084Z" fill="#BCBDBB"/>
<path d="M240.027 380.387C238.568 380.387 237.379 381.576 237.379 383.035C237.379 384.51 238.568 385.683 240.027 385.683C241.486 385.683 242.676 384.494 242.676 383.035C242.676 381.576 241.486 380.387 240.027 380.387Z" fill="#BCBDBB"/>
<path d="M231.178 389.235C229.719 389.235 228.529 390.425 228.529 391.884C228.529 393.358 229.719 394.532 231.178 394.532C232.637 394.532 233.826 393.342 233.826 391.884C233.826 390.425 232.637 389.235 231.178 389.235Z" fill="#BCBDBB"/>
<path d="M233.828 374.263C233.844 372.8 232.672 371.602 231.209 371.585C229.747 371.569 228.548 372.741 228.532 374.203C228.515 375.666 229.688 376.865 231.15 376.881C232.613 376.897 233.811 375.725 233.828 374.263Z" fill="#BCBDBB"/>
<path d="M222.33 398.084C220.871 398.084 219.682 399.273 219.682 400.732C219.682 402.207 220.871 403.38 222.33 403.38C223.789 403.38 224.978 402.191 224.978 400.732C224.978 399.273 223.805 398.084 222.33 398.084Z" fill="#BCBDBB"/>
<path d="M222.33 380.387C220.871 380.387 219.682 381.576 219.682 383.035C219.682 384.51 220.871 385.683 222.33 385.683C223.789 385.683 224.978 384.494 224.978 383.035C224.978 381.576 223.805 380.387 222.33 380.387Z" fill="#BCBDBB"/>
<path d="M233.84 427.342C233.856 425.879 232.684 424.681 231.221 424.664C229.759 424.648 228.56 425.82 228.543 427.282C228.527 428.745 229.699 429.944 231.162 429.96C232.624 429.976 233.823 428.804 233.84 427.342Z" fill="#BCBDBB"/>
<path d="M231.178 406.932C229.719 406.932 228.529 408.121 228.529 409.58C228.529 411.055 229.719 412.228 231.178 412.228C232.637 412.228 233.826 411.039 233.826 409.58C233.826 408.106 232.637 406.932 231.178 406.932Z" fill="#BCBDBB"/>
<path d="M222.33 415.765C220.871 415.765 219.682 416.954 219.682 418.413C219.682 419.888 220.871 421.061 222.33 421.061C223.789 421.061 224.978 419.872 224.978 418.413C224.978 416.954 223.805 415.765 222.33 415.765Z" fill="#BCBDBB"/>
<path d="M204.631 44.2262C203.172 44.2262 201.982 45.4155 201.982 46.8744C201.982 48.3492 203.172 49.5226 204.631 49.5226C206.09 49.5226 207.279 48.3333 207.279 46.8744C207.295 45.4155 206.106 44.2262 204.631 44.2262Z" fill="#BCBDBB"/>
<path d="M204.631 79.6199C203.172 79.6199 201.982 80.8092 201.982 82.2681C201.982 83.7428 203.172 84.9163 204.631 84.9163C206.09 84.9163 207.279 83.727 207.279 82.2681C207.295 80.8092 206.106 79.6199 204.631 79.6199Z" fill="#BCBDBB"/>
<path d="M204.631 61.9231C203.172 61.9231 201.982 63.1124 201.982 64.5713C201.982 66.046 203.172 67.2194 204.631 67.2194C206.09 67.2194 207.279 66.0301 207.279 64.5713C207.295 63.1124 206.106 61.9231 204.631 61.9231Z" fill="#BCBDBB"/>
<path d="M213.48 70.7715C212.021 70.7715 210.832 71.9608 210.832 73.4197C210.832 74.8944 212.021 76.0679 213.48 76.0679C214.939 76.0679 216.129 74.8786 216.129 73.4197C216.145 71.9608 214.955 70.7715 213.48 70.7715Z" fill="#BCBDBB"/>
<path d="M195.797 70.7715C194.338 70.7715 193.148 71.9608 193.148 73.4197C193.148 74.8944 194.338 76.0679 195.797 76.0679C197.256 76.0679 198.445 74.8786 198.445 73.4197C198.445 71.9608 197.256 70.7715 195.797 70.7715Z" fill="#BCBDBB"/>
<path d="M213.48 53.0747C212.021 53.0747 210.832 54.264 210.832 55.7228C210.832 57.1976 212.021 58.371 213.48 58.371C214.939 58.371 216.129 57.1817 216.129 55.7228C216.145 54.264 214.955 53.0747 213.48 53.0747Z" fill="#BCBDBB"/>
<path d="M186.949 79.6199C185.49 79.6199 184.301 80.8092 184.301 82.2681C184.301 83.7428 185.49 84.9163 186.949 84.9163C188.408 84.9163 189.598 83.727 189.598 82.2681C189.598 80.8092 188.408 79.6199 186.949 79.6199Z" fill="#BCBDBB"/>
<path d="M186.949 61.9231C185.49 61.9231 184.301 63.1124 184.301 64.5713C184.301 66.046 185.49 67.2194 186.949 67.2194C188.408 67.2194 189.598 66.0301 189.598 64.5713C189.598 63.1124 188.408 61.9231 186.949 61.9231Z" fill="#BCBDBB"/>
<path d="M204.631 114.998C203.172 114.998 201.982 116.187 201.982 117.646C201.982 119.121 203.172 120.294 204.631 120.294C206.09 120.294 207.279 119.105 207.279 117.646C207.295 116.187 206.106 114.998 204.631 114.998Z" fill="#BCBDBB"/>
<path d="M204.631 97.3009C203.172 97.3009 201.982 98.4902 201.982 99.9491C201.982 101.424 203.172 102.597 204.631 102.597C206.09 102.597 207.279 101.408 207.279 99.9491C207.295 98.4902 206.106 97.3009 204.631 97.3009Z" fill="#BCBDBB"/>
<path d="M213.48 106.149C212.021 106.149 210.832 107.339 210.832 108.798C210.832 110.272 212.021 111.446 213.48 111.446C214.939 111.446 216.129 110.256 216.129 108.798C216.145 107.339 214.955 106.149 213.48 106.149Z" fill="#BCBDBB"/>
<path d="M195.797 106.149C194.338 106.149 193.148 107.339 193.148 108.798C193.148 110.272 194.338 111.446 195.797 111.446C197.256 111.446 198.445 110.256 198.445 108.798C198.445 107.339 197.256 106.149 195.797 106.149Z" fill="#BCBDBB"/>
<path d="M213.48 88.4683C212.021 88.4683 210.832 89.6576 210.832 91.1165C210.832 92.5913 212.021 93.7647 213.48 93.7647C214.939 93.7647 216.129 92.5754 216.129 91.1165C216.145 89.6418 214.955 88.4683 213.48 88.4683Z" fill="#BCBDBB"/>
<path d="M195.797 88.4683C194.338 88.4683 193.148 89.6576 193.148 91.1165C193.148 92.5913 194.338 93.7647 195.797 93.7647C197.256 93.7647 198.445 92.5754 198.445 91.1165C198.445 89.6418 197.256 88.4683 195.797 88.4683Z" fill="#BCBDBB"/>
<path d="M186.949 114.998C185.49 114.998 184.301 116.187 184.301 117.646C184.301 119.121 185.49 120.294 186.949 120.294C188.408 120.294 189.598 119.105 189.598 117.646C189.598 116.187 188.408 114.998 186.949 114.998Z" fill="#BCBDBB"/>
<path d="M186.949 97.3009C185.49 97.3009 184.301 98.4902 184.301 99.9491C184.301 101.424 185.49 102.597 186.949 102.597C188.408 102.597 189.598 101.408 189.598 99.9491C189.598 98.4902 188.408 97.3009 186.949 97.3009Z" fill="#BCBDBB"/>
<path d="M204.631 150.391C203.172 150.391 201.982 151.581 201.982 153.04C201.982 154.514 203.172 155.688 204.631 155.688C206.09 155.688 207.279 154.498 207.279 153.04C207.295 151.581 206.106 150.391 204.631 150.391Z" fill="#BCBDBB"/>
<path d="M204.631 132.695C203.172 132.695 201.982 133.884 201.982 135.343C201.982 136.817 203.172 137.991 204.631 137.991C206.09 137.991 207.279 136.802 207.279 135.343C207.295 133.884 206.106 132.695 204.631 132.695Z" fill="#BCBDBB"/>
<path d="M213.48 141.543C212.021 141.543 210.832 142.732 210.832 144.191C210.832 145.666 212.021 146.839 213.48 146.839C214.939 146.839 216.129 145.65 216.129 144.191C216.145 142.732 214.955 141.543 213.48 141.543Z" fill="#BCBDBB"/>
<path d="M195.797 141.543C194.338 141.543 193.148 142.732 193.148 144.191C193.148 145.666 194.338 146.839 195.797 146.839C197.256 146.839 198.445 145.65 198.445 144.191C198.445 142.732 197.256 141.543 195.797 141.543Z" fill="#BCBDBB"/>
<path d="M213.48 123.846C212.021 123.846 210.832 125.035 210.832 126.494C210.832 127.969 212.021 129.143 213.48 129.143C214.939 129.143 216.129 127.953 216.129 126.494C216.145 125.035 214.955 123.846 213.48 123.846Z" fill="#BCBDBB"/>
<path d="M195.797 123.846C194.338 123.846 193.148 125.035 193.148 126.494C193.148 127.969 194.338 129.143 195.797 129.143C197.256 129.143 198.445 127.953 198.445 126.494C198.445 125.035 197.256 123.846 195.797 123.846Z" fill="#BCBDBB"/>
<path d="M186.949 150.391C185.49 150.391 184.301 151.581 184.301 153.04C184.301 154.514 185.49 155.688 186.949 155.688C188.408 155.688 189.598 154.498 189.598 153.04C189.598 151.581 188.408 150.391 186.949 150.391Z" fill="#BCBDBB"/>
<path d="M186.949 132.695C185.49 132.695 184.301 133.884 184.301 135.343C184.301 136.817 185.49 137.991 186.949 137.991C188.408 137.991 189.598 136.802 189.598 135.343C189.598 133.884 188.408 132.695 186.949 132.695Z" fill="#BCBDBB"/>
<path d="M204.631 168.072C203.172 168.072 201.982 169.262 201.982 170.721C201.982 172.195 203.172 173.369 204.631 173.369C206.09 173.369 207.279 172.179 207.279 170.721C207.295 169.262 206.106 168.072 204.631 168.072Z" fill="#BCBDBB"/>
<path d="M195.797 176.921C194.338 176.921 193.148 178.11 193.148 179.569C193.148 181.044 194.338 182.217 195.797 182.217C197.256 182.217 198.445 181.028 198.445 179.569C198.445 178.11 197.256 176.921 195.797 176.921Z" fill="#BCBDBB"/>
<path d="M213.48 159.224C212.021 159.224 210.832 160.413 210.832 161.872C210.832 163.347 212.021 164.52 213.48 164.52C214.939 164.52 216.129 163.331 216.129 161.872C216.145 160.413 214.955 159.224 213.48 159.224Z" fill="#BCBDBB"/>
<path d="M195.797 159.224C194.338 159.224 193.148 160.413 193.148 161.872C193.148 163.347 194.338 164.52 195.797 164.52C197.256 164.52 198.445 163.331 198.445 161.872C198.445 160.413 197.256 159.224 195.797 159.224Z" fill="#BCBDBB"/>
<path d="M186.949 185.769C185.49 185.769 184.301 186.959 184.301 188.417C184.301 189.892 185.49 191.066 186.949 191.066C188.408 191.066 189.598 189.876 189.598 188.417C189.598 186.959 188.408 185.769 186.949 185.769Z" fill="#BCBDBB"/>
<path d="M186.949 168.072C185.49 168.072 184.301 169.262 184.301 170.721C184.301 172.195 185.49 173.369 186.949 173.369C188.408 173.369 189.598 172.179 189.598 170.721C189.598 169.262 188.408 168.072 186.949 168.072Z" fill="#BCBDBB"/>
<path d="M204.631 203.466C203.172 203.466 201.982 204.655 201.982 206.114C201.982 207.589 203.172 208.762 204.631 208.762C206.09 208.762 207.279 207.573 207.279 206.114C207.295 204.655 206.106 203.466 204.631 203.466Z" fill="#BCBDBB"/>
<path d="M195.797 212.314C194.338 212.314 193.148 213.504 193.148 214.963C193.148 216.437 194.338 217.611 195.797 217.611C197.256 217.611 198.445 216.422 198.445 214.963C198.445 213.504 197.256 212.314 195.797 212.314Z" fill="#BCBDBB"/>
<path d="M213.48 194.618C212.021 194.618 210.832 195.807 210.832 197.266C210.832 198.741 212.021 199.914 213.48 199.914C214.939 199.914 216.129 198.725 216.129 197.266C216.145 195.807 214.955 194.618 213.48 194.618Z" fill="#BCBDBB"/>
<path d="M186.949 221.147C185.49 221.147 184.301 222.336 184.301 223.795C184.301 225.27 185.49 226.443 186.949 226.443C188.408 226.443 189.598 225.254 189.598 223.795C189.598 222.336 188.408 221.147 186.949 221.147Z" fill="#BCBDBB"/>
<path d="M186.949 203.466C185.49 203.466 184.301 204.655 184.301 206.114C184.301 207.589 185.49 208.762 186.949 208.762C188.408 208.762 189.598 207.573 189.598 206.114C189.598 204.655 188.408 203.466 186.949 203.466Z" fill="#BCBDBB"/>
<path d="M186.949 291.919C185.49 291.919 184.301 293.108 184.301 294.567C184.301 296.041 185.49 297.215 186.949 297.215C188.408 297.215 189.598 296.026 189.598 294.567C189.598 293.108 188.408 291.919 186.949 291.919Z" fill="#BCBDBB"/>
<path d="M204.631 309.615C203.172 309.615 201.982 310.805 201.982 312.264C201.982 313.738 203.172 314.912 204.631 314.912C206.09 314.912 207.279 313.722 207.279 312.264C207.295 310.805 206.106 309.615 204.631 309.615Z" fill="#BCBDBB"/>
<path d="M213.48 318.464C212.021 318.464 210.832 319.653 210.832 321.112C210.832 322.587 212.021 323.76 213.48 323.76C214.939 323.76 216.129 322.571 216.129 321.112C216.145 319.653 214.955 318.464 213.48 318.464Z" fill="#BCBDBB"/>
<path d="M186.949 309.615C185.49 309.615 184.301 310.805 184.301 312.264C184.301 313.738 185.49 314.912 186.949 314.912C188.408 314.912 189.598 313.722 189.598 312.264C189.598 310.805 188.408 309.615 186.949 309.615Z" fill="#BCBDBB"/>
<path d="M204.631 362.69C203.172 362.69 201.982 363.879 201.982 365.338C201.982 366.813 203.172 367.986 204.631 367.986C206.09 367.986 207.279 366.797 207.279 365.338C207.295 363.879 206.106 362.69 204.631 362.69Z" fill="#BCBDBB"/>
<path d="M204.631 345.009C203.172 345.009 201.982 346.198 201.982 347.657C201.982 349.132 203.172 350.305 204.631 350.305C206.09 350.305 207.279 349.116 207.279 347.657C207.295 346.183 206.106 345.009 204.631 345.009Z" fill="#BCBDBB"/>
<path d="M213.48 353.842C212.021 353.842 210.832 355.031 210.832 356.49C210.832 357.965 212.021 359.138 213.48 359.138C214.939 359.138 216.129 357.949 216.129 356.49C216.145 355.031 214.955 353.842 213.48 353.842Z" fill="#BCBDBB"/>
<path d="M195.797 353.842C194.338 353.842 193.148 355.031 193.148 356.49C193.148 357.965 194.338 359.138 195.797 359.138C197.256 359.138 198.445 357.949 198.445 356.49C198.445 355.031 197.256 353.842 195.797 353.842Z" fill="#BCBDBB"/>
<path d="M195.797 336.161C194.338 336.161 193.148 337.35 193.148 338.809C193.148 340.284 194.338 341.457 195.797 341.457C197.256 341.457 198.445 340.268 198.445 338.809C198.445 337.35 197.256 336.161 195.797 336.161Z" fill="#BCBDBB"/>
<path d="M186.949 362.69C185.49 362.69 184.301 363.879 184.301 365.338C184.301 366.813 185.49 367.986 186.949 367.986C188.408 367.986 189.598 366.797 189.598 365.338C189.598 363.879 188.408 362.69 186.949 362.69Z" fill="#BCBDBB"/>
<path d="M186.949 345.009C185.49 345.009 184.301 346.198 184.301 347.657C184.301 349.132 185.49 350.305 186.949 350.305C188.408 350.305 189.598 349.116 189.598 347.657C189.598 346.183 188.408 345.009 186.949 345.009Z" fill="#BCBDBB"/>
<path d="M204.631 398.084C203.172 398.084 201.982 399.273 201.982 400.732C201.982 402.207 203.172 403.38 204.631 403.38C206.09 403.38 207.279 402.191 207.279 400.732C207.295 399.273 206.106 398.084 204.631 398.084Z" fill="#BCBDBB"/>
<path d="M204.631 380.387C203.172 380.387 201.982 381.576 201.982 383.035C201.982 384.51 203.172 385.683 204.631 385.683C206.09 385.683 207.279 384.494 207.279 383.035C207.295 381.576 206.106 380.387 204.631 380.387Z" fill="#BCBDBB"/>
<path d="M213.48 389.235C212.021 389.235 210.832 390.425 210.832 391.884C210.832 393.358 212.021 394.532 213.48 394.532C214.939 394.532 216.129 393.342 216.129 391.884C216.145 390.425 214.955 389.235 213.48 389.235Z" fill="#BCBDBB"/>
<path d="M195.797 389.235C194.338 389.235 193.148 390.425 193.148 391.884C193.148 393.358 194.338 394.532 195.797 394.532C197.256 394.532 198.445 393.342 198.445 391.884C198.445 390.425 197.256 389.235 195.797 389.235Z" fill="#BCBDBB"/>
<path d="M213.48 371.538C212.021 371.538 210.832 372.728 210.832 374.187C210.832 375.661 212.021 376.835 213.48 376.835C214.939 376.835 216.129 375.646 216.129 374.187C216.145 372.728 214.955 371.538 213.48 371.538Z" fill="#BCBDBB"/>
<path d="M195.797 371.538C194.338 371.538 193.148 372.728 193.148 374.187C193.148 375.661 194.338 376.835 195.797 376.835C197.256 376.835 198.445 375.646 198.445 374.187C198.445 372.728 197.256 371.538 195.797 371.538Z" fill="#BCBDBB"/>
<path d="M186.949 380.387C185.49 380.387 184.301 381.576 184.301 383.035C184.301 384.51 185.49 385.683 186.949 385.683C188.408 385.683 189.598 384.494 189.598 383.035C189.598 381.576 188.408 380.387 186.949 380.387Z" fill="#BCBDBB"/>
<path d="M213.48 406.932C212.021 406.932 210.832 408.121 210.832 409.58C210.832 411.055 212.021 412.228 213.48 412.228C214.939 412.228 216.129 411.039 216.129 409.58C216.145 408.106 214.955 406.932 213.48 406.932Z" fill="#BCBDBB"/>
<path d="M169.25 79.6199C167.791 79.6199 166.602 80.8092 166.602 82.2681C166.602 83.7428 167.791 84.9163 169.25 84.9163C170.709 84.9163 171.898 83.727 171.898 82.2681C171.898 80.8092 170.709 79.6199 169.25 79.6199Z" fill="#BCBDBB"/>
<path d="M169.25 67.2194C170.713 67.2194 171.898 66.0338 171.898 64.5713C171.898 63.1087 170.713 61.9231 169.25 61.9231C167.787 61.9231 166.602 63.1087 166.602 64.5713C166.602 66.0338 167.787 67.2194 169.25 67.2194Z" fill="#BCBDBB"/>
<path d="M178.1 70.7715C176.641 70.7715 175.451 71.9608 175.451 73.4197C175.451 74.8944 176.641 76.0679 178.1 76.0679C179.559 76.0679 180.748 74.8786 180.748 73.4197C180.748 71.9608 179.559 70.7715 178.1 70.7715Z" fill="#BCBDBB"/>
<path d="M160.402 70.7715C158.943 70.7715 157.754 71.9608 157.754 73.4197C157.754 74.8944 158.943 76.0679 160.402 76.0679C161.861 76.0679 163.051 74.8786 163.051 73.4197C163.051 71.9608 161.861 70.7715 160.402 70.7715Z" fill="#BCBDBB"/>
<path d="M178.1 53.0747C176.641 53.0747 175.451 54.264 175.451 55.7228C175.451 57.1976 176.641 58.371 178.1 58.371C179.559 58.371 180.748 57.1817 180.748 55.7228C180.748 54.264 179.559 53.0747 178.1 53.0747Z" fill="#BCBDBB"/>
<path d="M160.402 53.0747C158.943 53.0747 157.754 54.264 157.754 55.7228C157.754 57.1976 158.943 58.371 160.402 58.371C161.861 58.371 163.051 57.1817 163.051 55.7228C163.051 54.264 161.861 53.0747 160.402 53.0747Z" fill="#BCBDBB"/>
<path d="M151.553 79.6199C150.094 79.6199 148.904 80.8092 148.904 82.2681C148.904 83.7428 150.094 84.9163 151.553 84.9163C153.012 84.9163 154.201 83.727 154.201 82.2681C154.217 80.8092 153.028 79.6199 151.553 79.6199Z" fill="#BCBDBB"/>
<path d="M151.553 61.9231C150.094 61.9231 148.904 63.1124 148.904 64.5713C148.904 66.046 150.094 67.2194 151.553 67.2194C153.012 67.2194 154.201 66.0301 154.201 64.5713C154.217 63.1124 153.028 61.9231 151.553 61.9231Z" fill="#BCBDBB"/>
<path d="M169.25 114.998C167.791 114.998 166.602 116.187 166.602 117.646C166.602 119.121 167.791 120.294 169.25 120.294C170.709 120.294 171.898 119.105 171.898 117.646C171.898 116.187 170.709 114.998 169.25 114.998Z" fill="#BCBDBB"/>
<path d="M169.25 102.613C170.713 102.613 171.898 101.427 171.898 99.9649C171.898 98.5024 170.713 97.3167 169.25 97.3167C167.787 97.3167 166.602 98.5024 166.602 99.9649C166.602 101.427 167.787 102.613 169.25 102.613Z" fill="#BCBDBB"/>
<path d="M178.1 106.149C176.641 106.149 175.451 107.339 175.451 108.798C175.451 110.272 176.641 111.446 178.1 111.446C179.559 111.446 180.748 110.256 180.748 108.798C180.748 107.339 179.559 106.149 178.1 106.149Z" fill="#BCBDBB"/>
<path d="M160.402 106.149C158.943 106.149 157.754 107.339 157.754 108.798C157.754 110.272 158.943 111.446 160.402 111.446C161.861 111.446 163.051 110.256 163.051 108.798C163.051 107.339 161.861 106.149 160.402 106.149Z" fill="#BCBDBB"/>
<path d="M178.1 88.4683C176.641 88.4683 175.451 89.6576 175.451 91.1165C175.451 92.5913 176.641 93.7647 178.1 93.7647C179.559 93.7647 180.748 92.5754 180.748 91.1165C180.748 89.6418 179.559 88.4683 178.1 88.4683Z" fill="#BCBDBB"/>
<path d="M160.402 88.4683C158.943 88.4683 157.754 89.6576 157.754 91.1165C157.754 92.5913 158.943 93.7647 160.402 93.7647C161.861 93.7647 163.051 92.5754 163.051 91.1165C163.051 89.6418 161.861 88.4683 160.402 88.4683Z" fill="#BCBDBB"/>
<path d="M151.553 114.998C150.094 114.998 148.904 116.187 148.904 117.646C148.904 119.121 150.094 120.294 151.553 120.294C153.012 120.294 154.201 119.105 154.201 117.646C154.217 116.187 153.028 114.998 151.553 114.998Z" fill="#BCBDBB"/>
<path d="M151.553 97.3009C150.094 97.3009 148.904 98.4902 148.904 99.9491C148.904 101.424 150.094 102.597 151.553 102.597C153.012 102.597 154.201 101.408 154.201 99.9491C154.217 98.4902 153.028 97.3009 151.553 97.3009Z" fill="#BCBDBB"/>
<path d="M169.25 150.391C167.791 150.391 166.602 151.581 166.602 153.04C166.602 154.514 167.791 155.688 169.25 155.688C170.709 155.688 171.898 154.498 171.898 153.04C171.898 151.581 170.709 150.391 169.25 150.391Z" fill="#BCBDBB"/>
<path d="M169.25 137.991C170.713 137.991 171.898 136.805 171.898 135.343C171.898 133.88 170.713 132.695 169.25 132.695C167.787 132.695 166.602 133.88 166.602 135.343C166.602 136.805 167.787 137.991 169.25 137.991Z" fill="#BCBDBB"/>
<path d="M178.1 141.543C176.641 141.543 175.451 142.732 175.451 144.191C175.451 145.666 176.641 146.839 178.1 146.839C179.559 146.839 180.748 145.65 180.748 144.191C180.748 142.732 179.559 141.543 178.1 141.543Z" fill="#BCBDBB"/>
<path d="M160.402 141.543C158.943 141.543 157.754 142.732 157.754 144.191C157.754 145.666 158.943 146.839 160.402 146.839C161.861 146.839 163.051 145.65 163.051 144.191C163.051 142.732 161.861 141.543 160.402 141.543Z" fill="#BCBDBB"/>
<path d="M178.1 123.846C176.641 123.846 175.451 125.035 175.451 126.494C175.451 127.969 176.641 129.143 178.1 129.143C179.559 129.143 180.748 127.953 180.748 126.494C180.748 125.035 179.559 123.846 178.1 123.846Z" fill="#BCBDBB"/>
<path d="M160.402 123.846C158.943 123.846 157.754 125.035 157.754 126.494C157.754 127.969 158.943 129.143 160.402 129.143C161.861 129.143 163.051 127.953 163.051 126.494C163.051 125.035 161.861 123.846 160.402 123.846Z" fill="#BCBDBB"/>
<path d="M151.553 150.391C150.094 150.391 148.904 151.581 148.904 153.04C148.904 154.514 150.094 155.688 151.553 155.688C153.012 155.688 154.201 154.498 154.201 153.04C154.217 151.581 153.028 150.391 151.553 150.391Z" fill="#BCBDBB"/>
<path d="M151.553 132.695C150.094 132.695 148.904 133.884 148.904 135.343C148.904 136.817 150.094 137.991 151.553 137.991C153.012 137.991 154.201 136.802 154.201 135.343C154.217 133.884 153.028 132.695 151.553 132.695Z" fill="#BCBDBB"/>
<path d="M169.25 185.769C167.791 185.769 166.602 186.959 166.602 188.417C166.602 189.892 167.791 191.066 169.25 191.066C170.709 191.066 171.898 189.876 171.898 188.417C171.898 186.959 170.709 185.769 169.25 185.769Z" fill="#BCBDBB"/>
<path d="M169.25 173.385C170.713 173.385 171.898 172.199 171.898 170.736C171.898 169.274 170.713 168.088 169.25 168.088C167.787 168.088 166.602 169.274 166.602 170.736C166.602 172.199 167.787 173.385 169.25 173.385Z" fill="#BCBDBB"/>
<path d="M178.1 176.921C176.641 176.921 175.451 178.11 175.451 179.569C175.451 181.044 176.641 182.217 178.1 182.217C179.559 182.217 180.748 181.028 180.748 179.569C180.748 178.11 179.559 176.921 178.1 176.921Z" fill="#BCBDBB"/>
<path d="M160.402 176.921C158.943 176.921 157.754 178.11 157.754 179.569C157.754 181.044 158.943 182.217 160.402 182.217C161.861 182.217 163.051 181.028 163.051 179.569C163.051 178.11 161.861 176.921 160.402 176.921Z" fill="#BCBDBB"/>
<path d="M178.1 159.224C176.641 159.224 175.451 160.413 175.451 161.872C175.451 163.347 176.641 164.52 178.1 164.52C179.559 164.52 180.748 163.331 180.748 161.872C180.748 160.413 179.559 159.224 178.1 159.224Z" fill="#BCBDBB"/>
<path d="M160.402 159.224C158.943 159.224 157.754 160.413 157.754 161.872C157.754 163.347 158.943 164.52 160.402 164.52C161.861 164.52 163.051 163.331 163.051 161.872C163.051 160.413 161.861 159.224 160.402 159.224Z" fill="#BCBDBB"/>
<path d="M151.553 185.769C150.094 185.769 148.904 186.959 148.904 188.417C148.904 189.892 150.094 191.066 151.553 191.066C153.012 191.066 154.201 189.876 154.201 188.417C154.217 186.959 153.028 185.769 151.553 185.769Z" fill="#BCBDBB"/>
<path d="M151.553 168.072C150.094 168.072 148.904 169.262 148.904 170.721C148.904 172.195 150.094 173.369 151.553 173.369C153.012 173.369 154.201 172.179 154.201 170.721C154.217 169.262 153.028 168.072 151.553 168.072Z" fill="#BCBDBB"/>
<path d="M169.25 221.147C167.791 221.147 166.602 222.336 166.602 223.795C166.602 225.27 167.791 226.443 169.25 226.443C170.709 226.443 171.898 225.254 171.898 223.795C171.898 222.336 170.709 221.147 169.25 221.147Z" fill="#BCBDBB"/>
<path d="M169.25 203.466C167.791 203.466 166.602 204.655 166.602 206.114C166.602 207.589 167.791 208.762 169.25 208.762C170.709 208.762 171.898 207.573 171.898 206.114C171.898 204.655 170.709 203.466 169.25 203.466Z" fill="#BCBDBB"/>
<path d="M178.1 212.314C176.641 212.314 175.451 213.504 175.451 214.963C175.451 216.437 176.641 217.611 178.1 217.611C179.559 217.611 180.748 216.422 180.748 214.963C180.748 213.504 179.559 212.314 178.1 212.314Z" fill="#BCBDBB"/>
<path d="M160.402 212.314C158.943 212.314 157.754 213.504 157.754 214.963C157.754 216.437 158.943 217.611 160.402 217.611C161.861 217.611 163.051 216.422 163.051 214.963C163.051 213.504 161.861 212.314 160.402 212.314Z" fill="#BCBDBB"/>
<path d="M178.1 194.618C176.641 194.618 175.451 195.807 175.451 197.266C175.451 198.741 176.641 199.914 178.1 199.914C179.559 199.914 180.748 198.725 180.748 197.266C180.748 195.807 179.559 194.618 178.1 194.618Z" fill="#BCBDBB"/>
<path d="M160.402 194.618C158.943 194.618 157.754 195.807 157.754 197.266C157.754 198.741 158.943 199.914 160.402 199.914C161.861 199.914 163.051 198.725 163.051 197.266C163.051 195.807 161.861 194.618 160.402 194.618Z" fill="#BCBDBB"/>
<path d="M151.553 221.147C150.094 221.147 148.904 222.336 148.904 223.795C148.904 225.27 150.094 226.443 151.553 226.443C153.012 226.443 154.201 225.254 154.201 223.795C154.217 222.336 153.028 221.147 151.553 221.147Z" fill="#BCBDBB"/>
<path d="M151.553 203.466C150.094 203.466 148.904 204.655 148.904 206.114C148.904 207.589 150.094 208.762 151.553 208.762C153.012 208.762 154.201 207.573 154.201 206.114C154.217 204.655 153.028 203.466 151.553 203.466Z" fill="#BCBDBB"/>
<path d="M169.25 256.541C167.791 256.541 166.602 257.73 166.602 259.189C166.602 260.664 167.791 261.837 169.25 261.837C170.709 261.837 171.898 260.648 171.898 259.189C171.898 257.73 170.709 256.541 169.25 256.541Z" fill="#BCBDBB"/>
<path d="M160.402 229.995C158.943 229.995 157.754 231.185 157.754 232.644C157.754 234.118 158.943 235.292 160.402 235.292C161.861 235.292 163.051 234.103 163.051 232.644C163.051 231.185 161.861 229.995 160.402 229.995Z" fill="#BCBDBB"/>
<path d="M151.553 238.844C150.094 238.844 148.904 240.033 148.904 241.492C148.904 242.967 150.094 244.14 151.553 244.14C153.012 244.14 154.201 242.951 154.201 241.492C154.217 240.033 153.028 238.844 151.553 238.844Z" fill="#BCBDBB"/>
<path d="M169.25 274.238C167.791 274.238 166.602 275.427 166.602 276.886C166.602 278.36 167.791 279.534 169.25 279.534C170.709 279.534 171.898 278.345 171.898 276.886C171.898 275.427 170.709 274.238 169.25 274.238Z" fill="#BCBDBB"/>
<path d="M178.1 283.07C176.641 283.07 175.451 284.259 175.451 285.718C175.451 287.193 176.641 288.367 178.1 288.367C179.559 288.367 180.748 287.177 180.748 285.718C180.748 284.259 179.559 283.07 178.1 283.07Z" fill="#BCBDBB"/>
<path d="M178.1 265.389C176.641 265.389 175.451 266.578 175.451 268.037C175.451 269.512 176.641 270.686 178.1 270.686C179.559 270.686 180.748 269.496 180.748 268.037C180.748 266.578 179.559 265.389 178.1 265.389Z" fill="#BCBDBB"/>
<path d="M160.402 265.389C158.943 265.389 157.754 266.578 157.754 268.037C157.754 269.512 158.943 270.686 160.402 270.686C161.861 270.686 163.051 269.496 163.051 268.037C163.051 266.578 161.861 265.389 160.402 265.389Z" fill="#BCBDBB"/>
<path d="M151.553 291.919C150.094 291.919 148.904 293.108 148.904 294.567C148.904 296.041 150.094 297.215 151.553 297.215C153.012 297.215 154.201 296.026 154.201 294.567C154.217 293.108 153.028 291.919 151.553 291.919Z" fill="#BCBDBB"/>
<path d="M169.25 327.312C167.791 327.312 166.602 328.502 166.602 329.96C166.602 331.435 167.791 332.609 169.25 332.609C170.709 332.609 171.898 331.419 171.898 329.96C171.898 328.502 170.709 327.312 169.25 327.312Z" fill="#BCBDBB"/>
<path d="M169.25 314.912C170.713 314.912 171.898 313.726 171.898 312.264C171.898 310.801 170.713 309.615 169.25 309.615C167.787 309.615 166.602 310.801 166.602 312.264C166.602 313.726 167.787 314.912 169.25 314.912Z" fill="#BCBDBB"/>
<path d="M160.402 318.464C158.943 318.464 157.754 319.653 157.754 321.112C157.754 322.587 158.943 323.76 160.402 323.76C161.861 323.76 163.051 322.571 163.051 321.112C163.051 319.653 161.861 318.464 160.402 318.464Z" fill="#BCBDBB"/>
<path d="M178.1 300.767C176.641 300.767 175.451 301.956 175.451 303.415C175.451 304.89 176.641 306.063 178.1 306.063C179.559 306.063 180.748 304.874 180.748 303.415C180.748 301.956 179.559 300.767 178.1 300.767Z" fill="#BCBDBB"/>
<path d="M160.402 300.767C158.943 300.767 157.754 301.956 157.754 303.415C157.754 304.89 158.943 306.063 160.402 306.063C161.861 306.063 163.051 304.874 163.051 303.415C163.051 301.956 161.861 300.767 160.402 300.767Z" fill="#BCBDBB"/>
<path d="M151.553 327.312C150.094 327.312 148.904 328.502 148.904 329.96C148.904 331.435 150.094 332.609 151.553 332.609C153.012 332.609 154.201 331.419 154.201 329.96C154.217 328.502 153.028 327.312 151.553 327.312Z" fill="#BCBDBB"/>
<path d="M151.553 309.615C150.094 309.615 148.904 310.805 148.904 312.264C148.904 313.738 150.094 314.912 151.553 314.912C153.012 314.912 154.201 313.722 154.201 312.264C154.217 310.805 153.028 309.615 151.553 309.615Z" fill="#BCBDBB"/>
<path d="M169.25 362.69C167.791 362.69 166.602 363.879 166.602 365.338C166.602 366.813 167.791 367.986 169.25 367.986C170.709 367.986 171.898 366.797 171.898 365.338C171.898 363.879 170.709 362.69 169.25 362.69Z" fill="#BCBDBB"/>
<path d="M178.1 353.842C176.641 353.842 175.451 355.031 175.451 356.49C175.451 357.965 176.641 359.138 178.1 359.138C179.559 359.138 180.748 357.949 180.748 356.49C180.748 355.031 179.559 353.842 178.1 353.842Z" fill="#BCBDBB"/>
<path d="M151.553 362.69C150.094 362.69 148.904 363.879 148.904 365.338C148.904 366.813 150.094 367.986 151.553 367.986C153.012 367.986 154.201 366.797 154.201 365.338C154.217 363.879 153.028 362.69 151.553 362.69Z" fill="#BCBDBB"/>
<path d="M169.25 398.084C167.791 398.084 166.602 399.273 166.602 400.732C166.602 402.207 167.791 403.38 169.25 403.38C170.709 403.38 171.898 402.191 171.898 400.732C171.898 399.273 170.709 398.084 169.25 398.084Z" fill="#BCBDBB"/>
<path d="M169.25 385.683C170.713 385.683 171.898 384.498 171.898 383.035C171.898 381.573 170.713 380.387 169.25 380.387C167.787 380.387 166.602 381.573 166.602 383.035C166.602 384.498 167.787 385.683 169.25 385.683Z" fill="#BCBDBB"/>
<path d="M178.1 389.235C176.641 389.235 175.451 390.425 175.451 391.884C175.451 393.358 176.641 394.532 178.1 394.532C179.559 394.532 180.748 393.342 180.748 391.884C180.748 390.425 179.559 389.235 178.1 389.235Z" fill="#BCBDBB"/>
<path d="M160.402 389.235C158.943 389.235 157.754 390.425 157.754 391.884C157.754 393.358 158.943 394.532 160.402 394.532C161.861 394.532 163.051 393.342 163.051 391.884C163.051 390.425 161.861 389.235 160.402 389.235Z" fill="#BCBDBB"/>
<path d="M178.1 371.538C176.641 371.538 175.451 372.728 175.451 374.187C175.451 375.661 176.641 376.835 178.1 376.835C179.559 376.835 180.748 375.646 180.748 374.187C180.748 372.728 179.559 371.538 178.1 371.538Z" fill="#BCBDBB"/>
<path d="M160.402 371.538C158.943 371.538 157.754 372.728 157.754 374.187C157.754 375.661 158.943 376.835 160.402 376.835C161.861 376.835 163.051 375.646 163.051 374.187C163.051 372.728 161.861 371.538 160.402 371.538Z" fill="#BCBDBB"/>
<path d="M151.553 398.084C150.094 398.084 148.904 399.273 148.904 400.732C148.904 402.207 150.094 403.38 151.553 403.38C153.012 403.38 154.201 402.191 154.201 400.732C154.217 399.273 153.028 398.084 151.553 398.084Z" fill="#BCBDBB"/>
<path d="M151.553 380.387C150.094 380.387 148.904 381.576 148.904 383.035C148.904 384.51 150.094 385.683 151.553 385.683C153.012 385.683 154.201 384.494 154.201 383.035C154.217 381.576 153.028 380.387 151.553 380.387Z" fill="#BCBDBB"/>
<path d="M133.869 44.2262C132.41 44.2262 131.221 45.4155 131.221 46.8744C131.221 48.3492 132.41 49.5226 133.869 49.5226C135.328 49.5226 136.517 48.3333 136.517 46.8744C136.517 45.4155 135.328 44.2262 133.869 44.2262Z" fill="#BCBDBB"/>
<path d="M133.869 26.5453C132.41 26.5453 131.221 27.7346 131.221 29.1934C131.221 30.6682 132.41 31.8416 133.869 31.8416C135.328 31.8416 136.517 30.6523 136.517 29.1934C136.517 27.7187 135.328 26.5453 133.869 26.5453Z" fill="#BCBDBB"/>
<path d="M142.703 35.3778C141.244 35.3778 140.055 36.5671 140.055 38.026C140.055 39.5007 141.244 40.6742 142.703 40.6742C144.162 40.6742 145.351 39.4849 145.351 38.026C145.367 36.5671 144.178 35.3778 142.703 35.3778Z" fill="#BCBDBB"/>
<path d="M125.021 35.3778C123.562 35.3778 122.373 36.5671 122.373 38.026C122.373 39.5007 123.562 40.6742 125.021 40.6742C126.48 40.6742 127.67 39.4849 127.67 38.026C127.67 36.5671 126.48 35.3778 125.021 35.3778Z" fill="#BCBDBB"/>
<path d="M116.172 44.2262C114.713 44.2262 113.523 45.4155 113.523 46.8744C113.523 48.3492 114.713 49.5226 116.172 49.5226C117.631 49.5226 118.82 48.3333 118.82 46.8744C118.82 45.4155 117.631 44.2262 116.172 44.2262Z" fill="#BCBDBB"/>
<path d="M116.172 31.8416C117.635 31.8416 118.82 30.656 118.82 29.1934C118.82 27.7309 117.635 26.5453 116.172 26.5453C114.709 26.5453 113.523 27.7309 113.523 29.1934C113.523 30.656 114.709 31.8416 116.172 31.8416Z" fill="#BCBDBB"/>
<path d="M133.869 79.6199C132.41 79.6199 131.221 80.8092 131.221 82.2681C131.221 83.7428 132.41 84.9163 133.869 84.9163C135.328 84.9163 136.517 83.727 136.517 82.2681C136.517 80.8092 135.328 79.6199 133.869 79.6199Z" fill="#BCBDBB"/>
<path d="M133.869 61.9231C132.41 61.9231 131.221 63.1124 131.221 64.5713C131.221 66.046 132.41 67.2194 133.869 67.2194C135.328 67.2194 136.517 66.0301 136.517 64.5713C136.517 63.1124 135.328 61.9231 133.869 61.9231Z" fill="#BCBDBB"/>
<path d="M142.703 70.7715C141.244 70.7715 140.055 71.9608 140.055 73.4197C140.055 74.8944 141.244 76.0679 142.703 76.0679C144.162 76.0679 145.351 74.8786 145.351 73.4197C145.367 71.9608 144.178 70.7715 142.703 70.7715Z" fill="#BCBDBB"/>
<path d="M125.021 70.7715C123.562 70.7715 122.373 71.9608 122.373 73.4197C122.373 74.8944 123.562 76.0679 125.021 76.0679C126.48 76.0679 127.67 74.8786 127.67 73.4197C127.67 71.9608 126.48 70.7715 125.021 70.7715Z" fill="#BCBDBB"/>
<path d="M142.703 53.0747C141.244 53.0747 140.055 54.264 140.055 55.7228C140.055 57.1976 141.244 58.371 142.703 58.371C144.162 58.371 145.351 57.1817 145.351 55.7228C145.367 54.264 144.178 53.0747 142.703 53.0747Z" fill="#BCBDBB"/>
<path d="M125.021 53.0747C123.562 53.0747 122.373 54.264 122.373 55.7228C122.373 57.1976 123.562 58.371 125.021 58.371C126.48 58.371 127.67 57.1817 127.67 55.7228C127.67 54.264 126.48 53.0747 125.021 53.0747Z" fill="#BCBDBB"/>
<path d="M116.172 79.6199C114.713 79.6199 113.523 80.8092 113.523 82.2681C113.523 83.7428 114.713 84.9163 116.172 84.9163C117.631 84.9163 118.82 83.727 118.82 82.2681C118.82 80.8092 117.631 79.6199 116.172 79.6199Z" fill="#BCBDBB"/>
<path d="M116.172 67.2194C117.635 67.2194 118.82 66.0338 118.82 64.5713C118.82 63.1087 117.635 61.9231 116.172 61.9231C114.709 61.9231 113.523 63.1087 113.523 64.5713C113.523 66.0338 114.709 67.2194 116.172 67.2194Z" fill="#BCBDBB"/>
<path d="M133.869 114.998C132.41 114.998 131.221 116.187 131.221 117.646C131.221 119.121 132.41 120.294 133.869 120.294C135.328 120.294 136.517 119.105 136.517 117.646C136.517 116.187 135.328 114.998 133.869 114.998Z" fill="#BCBDBB"/>
<path d="M133.869 97.3009C132.41 97.3009 131.221 98.4902 131.221 99.9491C131.221 101.424 132.41 102.597 133.869 102.597C135.328 102.597 136.517 101.408 136.517 99.9491C136.517 98.4902 135.328 97.3009 133.869 97.3009Z" fill="#BCBDBB"/>
<path d="M142.703 106.149C141.244 106.149 140.055 107.339 140.055 108.798C140.055 110.272 141.244 111.446 142.703 111.446C144.162 111.446 145.351 110.256 145.351 108.798C145.367 107.339 144.178 106.149 142.703 106.149Z" fill="#BCBDBB"/>
<path d="M125.021 41C123.562 41 122.373 42.1893 122.373 43.6482C122.373 45.1229 123.562 46.2964 125.021 46.2964C126.48 46.2964 127.67 45.1071 127.67 43.6482C127.67 42.1893 126.48 41 125.021 41Z" fill="#BCBDBB"/>
<path d="M142.703 88.4683C141.244 88.4683 140.055 89.6576 140.055 91.1165C140.055 92.5913 141.244 93.7647 142.703 93.7647C144.162 93.7647 145.351 92.5754 145.351 91.1165C145.367 89.6418 144.178 88.4683 142.703 88.4683Z" fill="#BCBDBB"/>
<path d="M125.021 88.4683C123.562 88.4683 122.373 89.6576 122.373 91.1165C122.373 92.5913 123.562 93.7647 125.021 93.7647C126.48 93.7647 127.67 92.5754 127.67 91.1165C127.67 89.6418 126.48 88.4683 125.021 88.4683Z" fill="#BCBDBB"/>
<path d="M116.172 114.998C114.713 114.998 113.523 116.187 113.523 117.646C113.523 119.121 114.713 120.294 116.172 120.294C117.631 120.294 118.82 119.105 118.82 117.646C118.82 116.187 117.631 114.998 116.172 114.998Z" fill="#BCBDBB"/>
<path d="M116.172 102.613C117.635 102.613 118.82 101.427 118.82 99.9649C118.82 98.5024 117.635 97.3167 116.172 97.3167C114.709 97.3167 113.523 98.5024 113.523 99.9649C113.523 101.427 114.709 102.613 116.172 102.613Z" fill="#BCBDBB"/>
<path d="M133.869 150.391C132.41 150.391 131.221 151.581 131.221 153.04C131.221 154.514 132.41 155.688 133.869 155.688C135.328 155.688 136.517 154.498 136.517 153.04C136.517 151.581 135.328 150.391 133.869 150.391Z" fill="#BCBDBB"/>
<path d="M133.869 132.695C132.41 132.695 131.221 133.884 131.221 135.343C131.221 136.817 132.41 137.991 133.869 137.991C135.328 137.991 136.517 136.802 136.517 135.343C136.517 133.884 135.328 132.695 133.869 132.695Z" fill="#BCBDBB"/>
<path d="M142.703 141.543C141.244 141.543 140.055 142.732 140.055 144.191C140.055 145.666 141.244 146.839 142.703 146.839C144.162 146.839 145.351 145.65 145.351 144.191C145.367 142.732 144.178 141.543 142.703 141.543Z" fill="#BCBDBB"/>
<path d="M125.021 141.543C123.562 141.543 122.373 142.732 122.373 144.191C122.373 145.666 123.562 146.839 125.021 146.839C126.48 146.839 127.67 145.65 127.67 144.191C127.67 142.732 126.48 141.543 125.021 141.543Z" fill="#BCBDBB"/>
<path d="M142.703 123.846C141.244 123.846 140.055 125.035 140.055 126.494C140.055 127.969 141.244 129.143 142.703 129.143C144.162 129.143 145.351 127.953 145.351 126.494C145.367 125.035 144.178 123.846 142.703 123.846Z" fill="#BCBDBB"/>
<path d="M125.021 123.846C123.562 123.846 122.373 125.035 122.373 126.494C122.373 127.969 123.562 129.143 125.021 129.143C126.48 129.143 127.67 127.953 127.67 126.494C127.67 125.035 126.48 123.846 125.021 123.846Z" fill="#BCBDBB"/>
<path d="M116.172 150.391C114.713 150.391 113.523 151.581 113.523 153.04C113.523 154.514 114.713 155.688 116.172 155.688C117.631 155.688 118.82 154.498 118.82 153.04C118.82 151.581 117.631 150.391 116.172 150.391Z" fill="#BCBDBB"/>
<path d="M116.172 137.991C117.635 137.991 118.82 136.805 118.82 135.343C118.82 133.88 117.635 132.695 116.172 132.695C114.709 132.695 113.523 133.88 113.523 135.343C113.523 136.805 114.709 137.991 116.172 137.991Z" fill="#BCBDBB"/>
<path d="M133.869 185.769C132.41 185.769 131.221 186.959 131.221 188.417C131.221 189.892 132.41 191.066 133.869 191.066C135.328 191.066 136.517 189.876 136.517 188.417C136.517 186.959 135.328 185.769 133.869 185.769Z" fill="#BCBDBB"/>
<path d="M133.869 168.072C132.41 168.072 131.221 169.262 131.221 170.721C131.221 172.195 132.41 173.369 133.869 173.369C135.328 173.369 136.517 172.179 136.517 170.721C136.517 169.262 135.328 168.072 133.869 168.072Z" fill="#BCBDBB"/>
<path d="M142.703 176.921C141.244 176.921 140.055 178.11 140.055 179.569C140.055 181.044 141.244 182.217 142.703 182.217C144.162 182.217 145.351 181.028 145.351 179.569C145.367 178.11 144.178 176.921 142.703 176.921Z" fill="#BCBDBB"/>
<path d="M125.021 176.921C123.562 176.921 122.373 178.11 122.373 179.569C122.373 181.044 123.562 182.217 125.021 182.217C126.48 182.217 127.67 181.028 127.67 179.569C127.67 178.11 126.48 176.921 125.021 176.921Z" fill="#BCBDBB"/>
<path d="M142.703 159.224C141.244 159.224 140.055 160.413 140.055 161.872C140.055 163.347 141.244 164.52 142.703 164.52C144.162 164.52 145.351 163.331 145.351 161.872C145.367 160.413 144.178 159.224 142.703 159.224Z" fill="#BCBDBB"/>
<path d="M125.021 159.224C123.562 159.224 122.373 160.413 122.373 161.872C122.373 163.347 123.562 164.52 125.021 164.52C126.48 164.52 127.67 163.331 127.67 161.872C127.67 160.413 126.48 159.224 125.021 159.224Z" fill="#BCBDBB"/>
<path d="M116.172 185.769C114.713 185.769 113.523 186.959 113.523 188.417C113.523 189.892 114.713 191.066 116.172 191.066C117.631 191.066 118.82 189.876 118.82 188.417C118.82 186.959 117.631 185.769 116.172 185.769Z" fill="#BCBDBB"/>
<path d="M116.172 173.385C117.635 173.385 118.82 172.199 118.82 170.736C118.82 169.274 117.635 168.088 116.172 168.088C114.709 168.088 113.523 169.274 113.523 170.736C113.523 172.199 114.709 173.385 116.172 173.385Z" fill="#BCBDBB"/>
<path d="M133.869 221.147C132.41 221.147 131.221 222.336 131.221 223.795C131.221 225.27 132.41 226.443 133.869 226.443C135.328 226.443 136.517 225.254 136.517 223.795C136.517 222.336 135.328 221.147 133.869 221.147Z" fill="#BCBDBB"/>
<path d="M133.869 203.466C132.41 203.466 131.221 204.655 131.221 206.114C131.221 207.589 132.41 208.762 133.869 208.762C135.328 208.762 136.517 207.573 136.517 206.114C136.517 204.655 135.328 203.466 133.869 203.466Z" fill="#BCBDBB"/>
<path d="M142.703 212.314C141.244 212.314 140.055 213.504 140.055 214.963C140.055 216.437 141.244 217.611 142.703 217.611C144.162 217.611 145.351 216.422 145.351 214.963C145.367 213.504 144.178 212.314 142.703 212.314Z" fill="#BCBDBB"/>
<path d="M125.021 212.314C123.562 212.314 122.373 213.504 122.373 214.963C122.373 216.437 123.562 217.611 125.021 217.611C126.48 217.611 127.67 216.422 127.67 214.963C127.67 213.504 126.48 212.314 125.021 212.314Z" fill="#BCBDBB"/>
<path d="M142.703 194.618C141.244 194.618 140.055 195.807 140.055 197.266C140.055 198.741 141.244 199.914 142.703 199.914C144.162 199.914 145.351 198.725 145.351 197.266C145.367 195.807 144.178 194.618 142.703 194.618Z" fill="#BCBDBB"/>
<path d="M125.021 194.618C123.562 194.618 122.373 195.807 122.373 197.266C122.373 198.741 123.562 199.914 125.021 199.914C126.48 199.914 127.67 198.725 127.67 197.266C127.67 195.807 126.48 194.618 125.021 194.618Z" fill="#BCBDBB"/>
<path d="M116.172 221.147C114.713 221.147 113.523 222.336 113.523 223.795C113.523 225.27 114.713 226.443 116.172 226.443C117.631 226.443 118.82 225.254 118.82 223.795C118.82 222.336 117.631 221.147 116.172 221.147Z" fill="#BCBDBB"/>
<path d="M116.172 203.466C114.713 203.466 113.523 204.655 113.523 206.114C113.523 207.589 114.713 208.762 116.172 208.762C117.631 208.762 118.82 207.573 118.82 206.114C118.82 204.655 117.631 203.466 116.172 203.466Z" fill="#BCBDBB"/>
<path d="M133.869 256.541C132.41 256.541 131.221 257.73 131.221 259.189C131.221 260.664 132.41 261.837 133.869 261.837C135.328 261.837 136.517 260.648 136.517 259.189C136.517 257.73 135.328 256.541 133.869 256.541Z" fill="#BCBDBB"/>
<path d="M133.869 238.844C132.41 238.844 131.221 240.033 131.221 241.492C131.221 242.967 132.41 244.14 133.869 244.14C135.328 244.14 136.517 242.951 136.517 241.492C136.517 240.033 135.328 238.844 133.869 238.844Z" fill="#BCBDBB"/>
<path d="M142.703 247.692C141.244 247.692 140.055 248.882 140.055 250.341C140.055 251.815 141.244 252.989 142.703 252.989C144.162 252.989 145.351 251.799 145.351 250.341C145.367 248.882 144.178 247.692 142.703 247.692Z" fill="#BCBDBB"/>
<path d="M125.021 247.692C123.562 247.692 122.373 248.882 122.373 250.341C122.373 251.815 123.562 252.989 125.021 252.989C126.48 252.989 127.67 251.799 127.67 250.341C127.67 248.882 126.48 247.692 125.021 247.692Z" fill="#BCBDBB"/>
<path d="M142.703 229.995C141.244 229.995 140.055 231.185 140.055 232.644C140.055 234.118 141.244 235.292 142.703 235.292C144.162 235.292 145.351 234.103 145.351 232.644C145.367 231.185 144.178 229.995 142.703 229.995Z" fill="#BCBDBB"/>
<path d="M125.021 229.995C123.562 229.995 122.373 231.185 122.373 232.644C122.373 234.118 123.562 235.292 125.021 235.292C126.48 235.292 127.67 234.103 127.67 232.644C127.67 231.185 126.48 229.995 125.021 229.995Z" fill="#BCBDBB"/>
<path d="M116.172 256.541C114.713 256.541 113.523 257.73 113.523 259.189C113.523 260.664 114.713 261.837 116.172 261.837C117.631 261.837 118.82 260.648 118.82 259.189C118.82 257.73 117.631 256.541 116.172 256.541Z" fill="#BCBDBB"/>
<path d="M116.172 244.156C117.635 244.156 118.82 242.97 118.82 241.508C118.82 240.045 117.635 238.86 116.172 238.86C114.709 238.86 113.523 240.045 113.523 241.508C113.523 242.97 114.709 244.156 116.172 244.156Z" fill="#BCBDBB"/>
<path d="M133.869 274.238C132.41 274.238 131.221 275.427 131.221 276.886C131.221 278.36 132.41 279.534 133.869 279.534C135.328 279.534 136.517 278.345 136.517 276.886C136.517 275.427 135.328 274.238 133.869 274.238Z" fill="#BCBDBB"/>
<path d="M125.021 265.389C123.562 265.389 122.373 266.578 122.373 268.037C122.373 269.512 123.562 270.686 125.021 270.686C126.48 270.686 127.67 269.496 127.67 268.037C127.67 266.578 126.48 265.389 125.021 265.389Z" fill="#BCBDBB"/>
<path d="M116.172 291.919C114.713 291.919 113.523 293.108 113.523 294.567C113.523 296.041 114.713 297.215 116.172 297.215C117.631 297.215 118.82 296.026 118.82 294.567C118.82 293.108 117.631 291.919 116.172 291.919Z" fill="#BCBDBB"/>
<path d="M116.172 274.238C114.713 274.238 113.523 275.427 113.523 276.886C113.523 278.36 114.713 279.534 116.172 279.534C117.631 279.534 118.82 278.345 118.82 276.886C118.82 275.427 117.631 274.238 116.172 274.238Z" fill="#BCBDBB"/>
<path d="M133.869 327.312C132.41 327.312 131.221 328.502 131.221 329.96C131.221 331.435 132.41 332.609 133.869 332.609C135.328 332.609 136.517 331.419 136.517 329.96C136.517 328.502 135.328 327.312 133.869 327.312Z" fill="#BCBDBB"/>
<path d="M125.021 318.464C123.562 318.464 122.373 319.653 122.373 321.112C122.373 322.587 123.562 323.76 125.021 323.76C126.48 323.76 127.67 322.571 127.67 321.112C127.67 319.653 126.48 318.464 125.021 318.464Z" fill="#BCBDBB"/>
<path d="M142.703 300.767C141.244 300.767 140.055 301.956 140.055 303.415C140.055 304.89 141.244 306.063 142.703 306.063C144.162 306.063 145.351 304.874 145.351 303.415C145.367 301.956 144.178 300.767 142.703 300.767Z" fill="#BCBDBB"/>
<path d="M125.021 300.767C123.562 300.767 122.373 301.956 122.373 303.415C122.373 304.89 123.562 306.063 125.021 306.063C126.48 306.063 127.67 304.874 127.67 303.415C127.67 301.956 126.48 300.767 125.021 300.767Z" fill="#BCBDBB"/>
<path d="M116.172 314.912C117.635 314.912 118.82 313.726 118.82 312.264C118.82 310.801 117.635 309.615 116.172 309.615C114.709 309.615 113.523 310.801 113.523 312.264C113.523 313.726 114.709 314.912 116.172 314.912Z" fill="#BCBDBB"/>
<path d="M98.4746 8.84842C97.0156 8.84842 95.8262 10.0377 95.8262 11.4966C95.8262 12.9713 97.0156 14.1448 98.4746 14.1448C99.9336 14.1448 101.123 12.9555 101.123 11.4966C101.123 10.0377 99.9336 8.84842 98.4746 8.84842Z" fill="#BCBDBB"/>
<path d="M80.7754 8.84842C79.3164 8.84842 78.127 10.0377 78.127 11.4966C78.127 12.9713 79.3164 14.1448 80.7754 14.1448C82.2343 14.1448 83.4238 12.9555 83.4238 11.4966C83.4396 10.0377 82.2502 8.84842 80.7754 8.84842Z" fill="#BCBDBB"/>
<path d="M98.4746 44.2262C97.0156 44.2262 95.8262 45.4155 95.8262 46.8744C95.8262 48.3492 97.0156 49.5226 98.4746 49.5226C99.9336 49.5226 101.123 48.3333 101.123 46.8744C101.123 45.4155 99.9336 44.2262 98.4746 44.2262Z" fill="#BCBDBB"/>
<path d="M107.322 17.6968C105.863 17.6968 104.674 18.8861 104.674 20.345C104.674 21.8198 105.863 22.9932 107.322 22.9932C108.781 22.9932 109.971 21.8039 109.971 20.345C109.971 18.8861 108.781 17.6968 107.322 17.6968Z" fill="#BCBDBB"/>
<path d="M89.6249 17.6968C88.1659 17.6968 86.9766 18.8861 86.9766 20.345C86.9766 21.8198 88.1659 22.9932 89.6249 22.9932C91.0839 22.9932 92.2733 21.8039 92.2733 20.345C92.2892 18.8861 91.0998 17.6968 89.6249 17.6968Z" fill="#BCBDBB"/>
<path d="M80.7754 44.2262C79.3164 44.2262 78.127 45.4155 78.127 46.8744C78.127 48.3492 79.3164 49.5226 80.7754 49.5226C82.2343 49.5226 83.4238 48.3333 83.4238 46.8744C83.4396 45.4155 82.2502 44.2262 80.7754 44.2262Z" fill="#BCBDBB"/>
<path d="M98.4746 79.6199C97.0156 79.6199 95.8262 80.8092 95.8262 82.2681C95.8262 83.7428 97.0156 84.9163 98.4746 84.9163C99.9336 84.9163 101.123 83.727 101.123 82.2681C101.123 80.8092 99.9336 79.6199 98.4746 79.6199Z" fill="#BCBDBB"/>
<path d="M101.118 64.6343C101.133 63.1719 99.9603 61.9737 98.4978 61.9581C97.0353 61.9424 95.837 63.1152 95.8213 64.5776C95.8057 66.0401 96.9786 67.2383 98.4411 67.2539C99.9036 67.2696 101.102 66.0967 101.118 64.6343Z" fill="#BCBDBB"/>
<path d="M107.322 70.7715C105.863 70.7715 104.674 71.9608 104.674 73.4197C104.674 74.8944 105.863 76.0679 107.322 76.0679C108.781 76.0679 109.971 74.8786 109.971 73.4197C109.971 71.9608 108.781 70.7715 107.322 70.7715Z" fill="#BCBDBB"/>
<path d="M89.6249 70.7715C88.1659 70.7715 86.9766 71.9608 86.9766 73.4197C86.9766 74.8944 88.1659 76.0679 89.6249 76.0679C91.0839 76.0679 92.2733 74.8786 92.2733 73.4197C92.2892 71.9608 91.0998 70.7715 89.6249 70.7715Z" fill="#BCBDBB"/>
<path d="M107.322 58.371C108.785 58.371 109.971 57.1854 109.971 55.7228C109.971 54.2603 108.785 53.0747 107.322 53.0747C105.86 53.0747 104.674 54.2603 104.674 55.7228C104.674 57.1854 105.86 58.371 107.322 58.371Z" fill="#BCBDBB"/>
<path d="M89.6249 53.0747C88.1659 53.0747 86.9766 54.264 86.9766 55.7228C86.9766 57.1976 88.1659 58.371 89.6249 58.371C91.0839 58.371 92.2733 57.1817 92.2733 55.7228C92.2892 54.264 91.0998 53.0747 89.6249 53.0747Z" fill="#BCBDBB"/>
<path d="M80.7754 79.6199C79.3164 79.6199 78.127 80.8092 78.127 82.2681C78.127 83.7428 79.3164 84.9163 80.7754 84.9163C82.2343 84.9163 83.4238 83.727 83.4238 82.2681C83.4396 80.8092 82.2502 79.6199 80.7754 79.6199Z" fill="#BCBDBB"/>
<path d="M83.428 64.5783C83.4423 63.1158 82.2681 61.9186 80.8054 61.9044C79.3428 61.8901 78.1455 63.0642 78.1313 64.5268C78.117 65.9893 79.2912 67.1865 80.7539 67.2008C82.2165 67.215 83.4138 66.0409 83.428 64.5783Z" fill="#BCBDBB"/>
<path d="M98.4746 114.998C97.0156 114.998 95.8262 116.187 95.8262 117.646C95.8262 119.121 97.0156 120.294 98.4746 120.294C99.9336 120.294 101.123 119.105 101.123 117.646C101.123 116.187 99.9336 114.998 98.4746 114.998Z" fill="#BCBDBB"/>
<path d="M101.123 100.019C101.139 98.5567 99.9661 97.3586 98.5036 97.3429C97.0411 97.3273 95.8428 98.5001 95.8272 99.9625C95.8115 101.425 96.9844 102.623 98.447 102.639C99.9095 102.654 101.108 101.482 101.123 100.019Z" fill="#BCBDBB"/>
<path d="M107.322 111.462C108.785 111.462 109.971 110.276 109.971 108.813C109.971 107.351 108.785 106.165 107.322 106.165C105.86 106.165 104.674 107.351 104.674 108.813C104.674 110.276 105.86 111.462 107.322 111.462Z" fill="#BCBDBB"/>
<path d="M89.6249 106.149C88.1659 106.149 86.9766 107.339 86.9766 108.798C86.9766 110.272 88.1659 111.446 89.6249 111.446C91.0839 111.446 92.2733 110.256 92.2733 108.798C92.2892 107.339 91.0998 106.149 89.6249 106.149Z" fill="#BCBDBB"/>
<path d="M107.322 88.4683C105.863 88.4683 104.674 89.6576 104.674 91.1165C104.674 92.5913 105.863 93.7647 107.322 93.7647C108.781 93.7647 109.971 92.5754 109.971 91.1165C109.971 89.6418 108.781 88.4683 107.322 88.4683Z" fill="#BCBDBB"/>
<path d="M89.6249 88.4683C88.1659 88.4683 86.9766 89.6576 86.9766 91.1165C86.9766 92.5913 88.1659 93.7647 89.6249 93.7647C91.0839 93.7647 92.2733 92.5754 92.2733 91.1165C92.2892 89.6418 91.0998 88.4683 89.6249 88.4683Z" fill="#BCBDBB"/>
<path d="M80.7754 114.998C79.3164 114.998 78.127 116.187 78.127 117.646C78.127 119.121 79.3164 120.294 80.7754 120.294C82.2343 120.294 83.4238 119.105 83.4238 117.646C83.4396 116.187 82.2502 114.998 80.7754 114.998Z" fill="#BCBDBB"/>
<path d="M83.4378 99.9631C83.452 98.5006 82.2778 97.3034 80.8152 97.2892C79.3525 97.2749 78.1553 98.449 78.141 99.9116C78.1268 101.374 79.301 102.571 80.7636 102.586C82.2263 102.6 83.4235 101.426 83.4378 99.9631Z" fill="#BCBDBB"/>
<path d="M98.4746 150.391C97.0156 150.391 95.8262 151.581 95.8262 153.04C95.8262 154.514 97.0156 155.688 98.4746 155.688C99.9336 155.688 101.123 154.498 101.123 153.04C101.123 151.581 99.9336 150.391 98.4746 150.391Z" fill="#BCBDBB"/>
<path d="M101.116 135.404C101.131 133.942 99.9583 132.743 98.4958 132.728C97.0333 132.712 95.835 133.885 95.8194 135.347C95.8037 136.81 96.9766 138.008 98.4391 138.024C99.9016 138.039 101.1 136.866 101.116 135.404Z" fill="#BCBDBB"/>
<path d="M107.322 141.543C105.863 141.543 104.674 142.732 104.674 144.191C104.674 145.666 105.863 146.839 107.322 146.839C108.781 146.839 109.971 145.65 109.971 144.191C109.971 142.732 108.781 141.543 107.322 141.543Z" fill="#BCBDBB"/>
<path d="M89.6249 141.543C88.1659 141.543 86.9766 142.732 86.9766 144.191C86.9766 145.666 88.1659 146.839 89.6249 146.839C91.0839 146.839 92.2733 145.65 92.2733 144.191C92.2892 142.732 91.0998 141.543 89.6249 141.543Z" fill="#BCBDBB"/>
<path d="M107.322 129.143C108.785 129.143 109.971 127.957 109.971 126.494C109.971 125.032 108.785 123.846 107.322 123.846C105.86 123.846 104.674 125.032 104.674 126.494C104.674 127.957 105.86 129.143 107.322 129.143Z" fill="#BCBDBB"/>
<path d="M89.6249 123.846C88.1659 123.846 86.9766 125.035 86.9766 126.494C86.9766 127.969 88.1659 129.143 89.6249 129.143C91.0839 129.143 92.2733 127.953 92.2733 126.494C92.2892 125.035 91.0998 123.846 89.6249 123.846Z" fill="#BCBDBB"/>
<path d="M80.7754 150.391C79.3164 150.391 78.127 151.581 78.127 153.04C78.127 154.514 79.3164 155.688 80.7754 155.688C82.2343 155.688 83.4238 154.498 83.4238 153.04C83.4396 151.581 82.2502 150.391 80.7754 150.391Z" fill="#BCBDBB"/>
<path d="M83.4319 135.348C83.4462 133.885 82.272 132.688 80.8093 132.674C79.3467 132.66 78.1494 133.834 78.1352 135.296C78.1209 136.759 79.2951 137.956 80.7578 137.97C82.2204 137.984 83.4177 136.81 83.4319 135.348Z" fill="#BCBDBB"/>
<path d="M98.4746 185.769C97.0156 185.769 95.8262 186.959 95.8262 188.417C95.8262 189.892 97.0156 191.066 98.4746 191.066C99.9336 191.066 101.123 189.876 101.123 188.417C101.123 186.959 99.9336 185.769 98.4746 185.769Z" fill="#BCBDBB"/>
<path d="M101.123 170.789C101.139 169.327 99.9661 168.128 98.5036 168.113C97.0411 168.097 95.8428 169.27 95.8272 170.732C95.8115 172.195 96.9844 173.393 98.4469 173.409C99.9095 173.424 101.108 172.251 101.123 170.789Z" fill="#BCBDBB"/>
<path d="M107.322 176.921C105.863 176.921 104.674 178.11 104.674 179.569C104.674 181.044 105.863 182.217 107.322 182.217C108.781 182.217 109.971 181.028 109.971 179.569C109.971 178.11 108.781 176.921 107.322 176.921Z" fill="#BCBDBB"/>
<path d="M89.6249 176.921C88.1659 176.921 86.9766 178.11 86.9766 179.569C86.9766 181.044 88.1659 182.217 89.6249 182.217C91.0839 182.217 92.2733 181.028 92.2733 179.569C92.2892 178.11 91.0998 176.921 89.6249 176.921Z" fill="#BCBDBB"/>
<path d="M107.322 164.536C108.785 164.536 109.971 163.351 109.971 161.888C109.971 160.425 108.785 159.24 107.322 159.24C105.86 159.24 104.674 160.425 104.674 161.888C104.674 163.351 105.86 164.536 107.322 164.536Z" fill="#BCBDBB"/>
<path d="M89.6249 159.224C88.1659 159.224 86.9766 160.413 86.9766 161.872C86.9766 163.347 88.1659 164.52 89.6249 164.52C91.0839 164.52 92.2733 163.331 92.2733 161.872C92.2892 160.413 91.0998 159.224 89.6249 159.224Z" fill="#BCBDBB"/>
<path d="M80.7754 185.769C79.3164 185.769 78.127 186.959 78.127 188.417C78.127 189.892 79.3164 191.066 80.7754 191.066C82.2343 191.066 83.4238 189.876 83.4238 188.417C83.4396 186.959 82.2502 185.769 80.7754 185.769Z" fill="#BCBDBB"/>
<path d="M83.4436 170.733C83.4579 169.27 82.2837 168.073 80.821 168.059C79.3584 168.044 78.1611 169.219 78.1469 170.681C78.1326 172.144 79.3068 173.341 80.7695 173.355C82.2321 173.369 83.4294 172.195 83.4436 170.733Z" fill="#BCBDBB"/>
<path d="M98.4746 221.147C97.0156 221.147 95.8262 222.336 95.8262 223.795C95.8262 225.27 97.0156 226.443 98.4746 226.443C99.9336 226.443 101.123 225.254 101.123 223.795C101.123 222.336 99.9336 221.147 98.4746 221.147Z" fill="#BCBDBB"/>
<path d="M98.4746 203.466C97.0156 203.466 95.8262 204.655 95.8262 206.114C95.8262 207.589 97.0156 208.762 98.4746 208.762C99.9336 208.762 101.123 207.573 101.123 206.114C101.123 204.655 99.9336 203.466 98.4746 203.466Z" fill="#BCBDBB"/>
<path d="M107.322 217.611C108.785 217.611 109.971 216.425 109.971 214.963C109.971 213.5 108.785 212.314 107.322 212.314C105.86 212.314 104.674 213.5 104.674 214.963C104.674 216.425 105.86 217.611 107.322 217.611Z" fill="#BCBDBB"/>
<path d="M89.6249 212.314C88.1659 212.314 86.9766 213.504 86.9766 214.963C86.9766 216.437 88.1659 217.611 89.6249 217.611C91.0839 217.611 92.2733 216.422 92.2733 214.963C92.2892 213.504 91.0998 212.314 89.6249 212.314Z" fill="#BCBDBB"/>
<path d="M107.322 194.618C105.863 194.618 104.674 195.807 104.674 197.266C104.674 198.741 105.863 199.914 107.322 199.914C108.781 199.914 109.971 198.725 109.971 197.266C109.971 195.807 108.781 194.618 107.322 194.618Z" fill="#BCBDBB"/>
<path d="M89.6249 194.618C88.1659 194.618 86.9766 195.807 86.9766 197.266C86.9766 198.741 88.1659 199.914 89.6249 199.914C91.0839 199.914 92.2733 198.725 92.2733 197.266C92.2892 195.807 91.0998 194.618 89.6249 194.618Z" fill="#BCBDBB"/>
<path d="M80.7754 221.147C79.3164 221.147 78.127 222.336 78.127 223.795C78.127 225.27 79.3164 226.443 80.7754 226.443C82.2343 226.443 83.4238 225.254 83.4238 223.795C83.4396 222.336 82.2502 221.147 80.7754 221.147Z" fill="#BCBDBB"/>
<path d="M80.7754 203.466C79.3164 203.466 78.127 204.655 78.127 206.114C78.127 207.589 79.3164 208.762 80.7754 208.762C82.2343 208.762 83.4238 207.573 83.4238 206.114C83.4396 204.655 82.2502 203.466 80.7754 203.466Z" fill="#BCBDBB"/>
<path d="M98.4746 256.541C97.0156 256.541 95.8262 257.73 95.8262 259.189C95.8262 260.664 97.0156 261.837 98.4746 261.837C99.9336 261.837 101.123 260.648 101.123 259.189C101.123 257.73 99.9336 256.541 98.4746 256.541Z" fill="#BCBDBB"/>
<path d="M101.121 241.559C101.137 240.096 99.9642 238.898 98.5017 238.882C97.0392 238.867 95.8409 240.04 95.8252 241.502C95.8096 242.964 96.9825 244.163 98.445 244.178C99.9075 244.194 101.106 243.021 101.121 241.559Z" fill="#BCBDBB"/>
<path d="M107.322 247.692C105.863 247.692 104.674 248.882 104.674 250.341C104.674 251.815 105.863 252.989 107.322 252.989C108.781 252.989 109.971 251.799 109.971 250.341C109.971 248.882 108.781 247.692 107.322 247.692Z" fill="#BCBDBB"/>
<path d="M107.322 229.995C105.863 229.995 104.674 231.185 104.674 232.644C104.674 234.118 105.863 235.292 107.322 235.292C108.781 235.292 109.971 234.103 109.971 232.644C109.971 231.185 108.781 229.995 107.322 229.995Z" fill="#BCBDBB"/>
<path d="M89.6249 229.995C88.1659 229.995 86.9766 231.185 86.9766 232.644C86.9766 234.118 88.1659 235.292 89.6249 235.292C91.0839 235.292 92.2733 234.103 92.2733 232.644C92.2892 231.185 91.0998 229.995 89.6249 229.995Z" fill="#BCBDBB"/>
<path d="M80.7754 256.541C79.3164 256.541 78.127 257.73 78.127 259.189C78.127 260.664 79.3164 261.837 80.7754 261.837C82.2343 261.837 83.4238 260.648 83.4238 259.189C83.4396 257.73 82.2502 256.541 80.7754 256.541Z" fill="#BCBDBB"/>
<path d="M83.4475 241.502C83.4618 240.04 82.2876 238.842 80.8249 238.828C79.3623 238.814 78.165 239.988 78.1508 241.451C78.1365 242.913 79.3107 244.11 80.7734 244.125C82.236 244.139 83.4333 242.965 83.4475 241.502Z" fill="#BCBDBB"/>
<path d="M107.322 288.382C108.785 288.382 109.971 287.197 109.971 285.734C109.971 284.272 108.785 283.086 107.322 283.086C105.86 283.086 104.674 284.272 104.674 285.734C104.674 287.197 105.86 288.382 107.322 288.382Z" fill="#BCBDBB"/>
<path d="M107.322 270.686C108.785 270.686 109.971 269.5 109.971 268.037C109.971 266.575 108.785 265.389 107.322 265.389C105.86 265.389 104.674 266.575 104.674 268.037C104.674 269.5 105.86 270.686 107.322 270.686Z" fill="#BCBDBB"/>
<path d="M63.0937 79.6199C61.6347 79.6199 60.4453 80.8092 60.4453 82.2681C60.4453 83.7428 61.6347 84.9163 63.0937 84.9163C64.5527 84.9163 65.7421 83.727 65.7421 82.2681C65.7421 80.8092 64.5527 79.6199 63.0937 79.6199Z" fill="#BCBDBB"/>
<path d="M63.0937 61.9231C61.6347 61.9231 60.4453 63.1124 60.4453 64.5713C60.4453 66.046 61.6347 67.2194 63.0937 67.2194C64.5527 67.2194 65.7421 66.0301 65.7421 64.5713C65.7421 63.1124 64.5527 61.9231 63.0937 61.9231Z" fill="#BCBDBB"/>
<path d="M71.9257 70.7715C70.4668 70.7715 69.2773 71.9608 69.2773 73.4197C69.2773 74.8944 70.4668 76.0679 71.9257 76.0679C73.3847 76.0679 74.5741 74.8786 74.5741 73.4197C74.59 71.9608 73.4006 70.7715 71.9257 70.7715Z" fill="#BCBDBB"/>
<path d="M54.2441 70.7715C52.7851 70.7715 51.5957 71.9608 51.5957 73.4197C51.5957 74.8944 52.7851 76.0679 54.2441 76.0679C55.7031 76.0679 56.8925 74.8786 56.8925 73.4197C56.8925 71.9608 55.7031 70.7715 54.2441 70.7715Z" fill="#BCBDBB"/>
<path d="M71.9257 58.371C73.3884 58.371 74.5741 57.1854 74.5741 55.7228C74.5741 54.2603 73.3884 53.0747 71.9257 53.0747C70.4631 53.0747 69.2773 54.2603 69.2773 55.7228C69.2773 57.1854 70.4631 58.371 71.9257 58.371Z" fill="#BCBDBB"/>
<path d="M45.3945 79.6199C43.9355 79.6199 42.7461 80.8092 42.7461 82.2681C42.7461 83.7428 43.9355 84.9163 45.3945 84.9163C46.8535 84.9163 48.0429 83.727 48.0429 82.2681C48.0429 80.8092 46.8535 79.6199 45.3945 79.6199Z" fill="#BCBDBB"/>
<path d="M45.3945 61.9231C43.9355 61.9231 42.7461 63.1124 42.7461 64.5713C42.7461 66.046 43.9355 67.2194 45.3945 67.2194C46.8535 67.2194 48.0429 66.0301 48.0429 64.5713C48.0429 63.1124 46.8535 61.9231 45.3945 61.9231Z" fill="#BCBDBB"/>
<path d="M63.0937 114.998C61.6347 114.998 60.4453 116.187 60.4453 117.646C60.4453 119.121 61.6347 120.294 63.0937 120.294C64.5527 120.294 65.7421 119.105 65.7421 117.646C65.7421 116.187 64.5527 114.998 63.0937 114.998Z" fill="#BCBDBB"/>
<path d="M63.0937 97.3009C61.6347 97.3009 60.4453 98.4902 60.4453 99.9491C60.4453 101.424 61.6347 102.597 63.0937 102.597C64.5527 102.597 65.7421 101.408 65.7421 99.9491C65.7421 98.4902 64.5527 97.3009 63.0937 97.3009Z" fill="#BCBDBB"/>
<path d="M71.9257 111.462C73.3884 111.462 74.5741 110.276 74.5741 108.813C74.5741 107.351 73.3884 106.165 71.9257 106.165C70.4631 106.165 69.2773 107.351 69.2773 108.813C69.2773 110.276 70.4631 111.462 71.9257 111.462Z" fill="#BCBDBB"/>
<path d="M54.2441 106.149C52.7851 106.149 51.5957 107.339 51.5957 108.798C51.5957 110.272 52.7851 111.446 54.2441 111.446C55.7031 111.446 56.8925 110.256 56.8925 108.798C56.8925 107.339 55.7031 106.149 54.2441 106.149Z" fill="#BCBDBB"/>
<path d="M71.9257 88.4683C70.4668 88.4683 69.2773 89.6576 69.2773 91.1165C69.2773 92.5913 70.4668 93.7647 71.9257 93.7647C73.3847 93.7647 74.5741 92.5754 74.5741 91.1165C74.59 89.6418 73.4006 88.4683 71.9257 88.4683Z" fill="#BCBDBB"/>
<path d="M54.2441 88.4683C52.7851 88.4683 51.5957 89.6576 51.5957 91.1165C51.5957 92.5913 52.7851 93.7647 54.2441 93.7647C55.7031 93.7647 56.8925 92.5754 56.8925 91.1165C56.8925 89.6418 55.7031 88.4683 54.2441 88.4683Z" fill="#BCBDBB"/>
<path d="M45.3945 114.998C43.9355 114.998 42.7461 116.187 42.7461 117.646C42.7461 119.121 43.9355 120.294 45.3945 120.294C46.8535 120.294 48.0429 119.105 48.0429 117.646C48.0429 116.187 46.8535 114.998 45.3945 114.998Z" fill="#BCBDBB"/>
<path d="M45.3945 97.3009C43.9355 97.3009 42.7461 98.4902 42.7461 99.9491C42.7461 101.424 43.9355 102.597 45.3945 102.597C46.8535 102.597 48.0429 101.408 48.0429 99.9491C48.0429 98.4902 46.8535 97.3009 45.3945 97.3009Z" fill="#BCBDBB"/>
<path d="M63.0937 150.391C61.6347 150.391 60.4453 151.581 60.4453 153.04C60.4453 154.514 61.6347 155.688 63.0937 155.688C64.5527 155.688 65.7421 154.498 65.7421 153.04C65.7421 151.581 64.5527 150.391 63.0937 150.391Z" fill="#BCBDBB"/>
<path d="M63.0937 132.695C61.6347 132.695 60.4453 133.884 60.4453 135.343C60.4453 136.817 61.6347 137.991 63.0937 137.991C64.5527 137.991 65.7421 136.802 65.7421 135.343C65.7421 133.884 64.5527 132.695 63.0937 132.695Z" fill="#BCBDBB"/>
<path d="M71.9257 141.543C70.4668 141.543 69.2773 142.732 69.2773 144.191C69.2773 145.666 70.4668 146.839 71.9257 146.839C73.3847 146.839 74.5741 145.65 74.5741 144.191C74.59 142.732 73.4006 141.543 71.9257 141.543Z" fill="#BCBDBB"/>
<path d="M54.2441 141.543C52.7851 141.543 51.5957 142.732 51.5957 144.191C51.5957 145.666 52.7851 146.839 54.2441 146.839C55.7031 146.839 56.8925 145.65 56.8925 144.191C56.8925 142.732 55.7031 141.543 54.2441 141.543Z" fill="#BCBDBB"/>
<path d="M71.9257 129.143C73.3884 129.143 74.5741 127.957 74.5741 126.494C74.5741 125.032 73.3884 123.846 71.9257 123.846C70.4631 123.846 69.2773 125.032 69.2773 126.494C69.2773 127.957 70.4631 129.143 71.9257 129.143Z" fill="#BCBDBB"/>
<path d="M54.2441 123.846C52.7851 123.846 51.5957 125.035 51.5957 126.494C51.5957 127.969 52.7851 129.143 54.2441 129.143C55.7031 129.143 56.8925 127.953 56.8925 126.494C56.8925 125.035 55.7031 123.846 54.2441 123.846Z" fill="#BCBDBB"/>
<path d="M45.3945 150.391C43.9355 150.391 42.7461 151.581 42.7461 153.04C42.7461 154.514 43.9355 155.688 45.3945 155.688C46.8535 155.688 48.0429 154.498 48.0429 153.04C48.0429 151.581 46.8535 150.391 45.3945 150.391Z" fill="#BCBDBB"/>
<path d="M45.3945 132.695C43.9355 132.695 42.7461 133.884 42.7461 135.343C42.7461 136.817 43.9355 137.991 45.3945 137.991C46.8535 137.991 48.0429 136.802 48.0429 135.343C48.0429 133.884 46.8535 132.695 45.3945 132.695Z" fill="#BCBDBB"/>
<path d="M63.0937 185.769C61.6347 185.769 60.4453 186.959 60.4453 188.417C60.4453 189.892 61.6347 191.066 63.0937 191.066C64.5527 191.066 65.7421 189.876 65.7421 188.417C65.7421 186.959 64.5527 185.769 63.0937 185.769Z" fill="#BCBDBB"/>
<path d="M63.0937 168.072C61.6347 168.072 60.4453 169.262 60.4453 170.721C60.4453 172.195 61.6347 173.369 63.0937 173.369C64.5527 173.369 65.7421 172.179 65.7421 170.721C65.7421 169.262 64.5527 168.072 63.0937 168.072Z" fill="#BCBDBB"/>
<path d="M71.9257 176.921C70.4668 176.921 69.2773 178.11 69.2773 179.569C69.2773 181.044 70.4668 182.217 71.9257 182.217C73.3847 182.217 74.5741 181.028 74.5741 179.569C74.59 178.11 73.4006 176.921 71.9257 176.921Z" fill="#BCBDBB"/>
<path d="M54.2441 176.921C52.7851 176.921 51.5957 178.11 51.5957 179.569C51.5957 181.044 52.7851 182.217 54.2441 182.217C55.7031 182.217 56.8925 181.028 56.8925 179.569C56.8925 178.11 55.7031 176.921 54.2441 176.921Z" fill="#BCBDBB"/>
<path d="M71.9257 164.536C73.3884 164.536 74.5741 163.351 74.5741 161.888C74.5741 160.425 73.3884 159.24 71.9257 159.24C70.4631 159.24 69.2773 160.425 69.2773 161.888C69.2773 163.351 70.4631 164.536 71.9257 164.536Z" fill="#BCBDBB"/>
<path d="M54.2441 159.224C52.7851 159.224 51.5957 160.413 51.5957 161.872C51.5957 163.347 52.7851 164.52 54.2441 164.52C55.7031 164.52 56.8925 163.331 56.8925 161.872C56.8925 160.413 55.7031 159.224 54.2441 159.224Z" fill="#BCBDBB"/>
<path d="M45.3945 185.769C43.9355 185.769 42.7461 186.959 42.7461 188.417C42.7461 189.892 43.9355 191.066 45.3945 191.066C46.8535 191.066 48.0429 189.876 48.0429 188.417C48.0429 186.959 46.8535 185.769 45.3945 185.769Z" fill="#BCBDBB"/>
<path d="M45.3945 168.072C43.9355 168.072 42.7461 169.262 42.7461 170.721C42.7461 172.195 43.9355 173.369 45.3945 173.369C46.8535 173.369 48.0429 172.179 48.0429 170.721C48.0429 169.262 46.8535 168.072 45.3945 168.072Z" fill="#BCBDBB"/>
<path d="M63.0937 221.147C61.6347 221.147 60.4453 222.336 60.4453 223.795C60.4453 225.27 61.6347 226.443 63.0937 226.443C64.5527 226.443 65.7421 225.254 65.7421 223.795C65.7421 222.336 64.5527 221.147 63.0937 221.147Z" fill="#BCBDBB"/>
<path d="M63.0937 203.466C61.6347 203.466 60.4453 204.655 60.4453 206.114C60.4453 207.589 61.6347 208.762 63.0937 208.762C64.5527 208.762 65.7421 207.573 65.7421 206.114C65.7421 204.655 64.5527 203.466 63.0937 203.466Z" fill="#BCBDBB"/>
<path d="M71.9257 217.611C73.3884 217.611 74.5741 216.425 74.5741 214.963C74.5741 213.5 73.3884 212.314 71.9257 212.314C70.4631 212.314 69.2773 213.5 69.2773 214.963C69.2773 216.425 70.4631 217.611 71.9257 217.611Z" fill="#BCBDBB"/>
<path d="M54.2441 212.314C52.7851 212.314 51.5957 213.504 51.5957 214.963C51.5957 216.437 52.7851 217.611 54.2441 217.611C55.7031 217.611 56.8925 216.422 56.8925 214.963C56.8925 213.504 55.7031 212.314 54.2441 212.314Z" fill="#BCBDBB"/>
<path d="M71.9257 194.618C70.4668 194.618 69.2773 195.807 69.2773 197.266C69.2773 198.741 70.4668 199.914 71.9257 199.914C73.3847 199.914 74.5741 198.725 74.5741 197.266C74.59 195.807 73.4006 194.618 71.9257 194.618Z" fill="#BCBDBB"/>
<path d="M54.2441 194.618C52.7851 194.618 51.5957 195.807 51.5957 197.266C51.5957 198.741 52.7851 199.914 54.2441 199.914C55.7031 199.914 56.8925 198.725 56.8925 197.266C56.8925 195.807 55.7031 194.618 54.2441 194.618Z" fill="#BCBDBB"/>
<path d="M45.3945 221.147C43.9355 221.147 42.7461 222.336 42.7461 223.795C42.7461 225.27 43.9355 226.443 45.3945 226.443C46.8535 226.443 48.0429 225.254 48.0429 223.795C48.0429 222.336 46.8535 221.147 45.3945 221.147Z" fill="#BCBDBB"/>
<path d="M45.3945 203.466C43.9355 203.466 42.7461 204.655 42.7461 206.114C42.7461 207.589 43.9355 208.762 45.3945 208.762C46.8535 208.762 48.0429 207.573 48.0429 206.114C48.0429 204.655 46.8535 203.466 45.3945 203.466Z" fill="#BCBDBB"/>
<path d="M63.0937 256.541C61.6347 256.541 60.4453 257.73 60.4453 259.189C60.4453 260.664 61.6347 261.837 63.0937 261.837C64.5527 261.837 65.7421 260.648 65.7421 259.189C65.7421 257.73 64.5527 256.541 63.0937 256.541Z" fill="#BCBDBB"/>
<path d="M63.0937 238.844C61.6347 238.844 60.4453 240.033 60.4453 241.492C60.4453 242.967 61.6347 244.14 63.0937 244.14C64.5527 244.14 65.7421 242.951 65.7421 241.492C65.7421 240.033 64.5527 238.844 63.0937 238.844Z" fill="#BCBDBB"/>
<path d="M71.9257 247.692C70.4668 247.692 69.2773 248.882 69.2773 250.341C69.2773 251.815 70.4668 252.989 71.9257 252.989C73.3847 252.989 74.5741 251.799 74.5741 250.341C74.59 248.882 73.4006 247.692 71.9257 247.692Z" fill="#BCBDBB"/>
<path d="M54.2441 247.692C52.7851 247.692 51.5957 248.882 51.5957 250.341C51.5957 251.815 52.7851 252.989 54.2441 252.989C55.7031 252.989 56.8925 251.799 56.8925 250.341C56.8925 248.882 55.7031 247.692 54.2441 247.692Z" fill="#BCBDBB"/>
<path d="M71.9257 229.995C70.4668 229.995 69.2773 231.185 69.2773 232.644C69.2773 234.118 70.4668 235.292 71.9257 235.292C73.3847 235.292 74.5741 234.103 74.5741 232.644C74.59 231.185 73.4006 229.995 71.9257 229.995Z" fill="#BCBDBB"/>
<path d="M54.2441 229.995C52.7851 229.995 51.5957 231.185 51.5957 232.644C51.5957 234.118 52.7851 235.292 54.2441 235.292C55.7031 235.292 56.8925 234.103 56.8925 232.644C56.8925 231.185 55.7031 229.995 54.2441 229.995Z" fill="#BCBDBB"/>
<path d="M45.3945 256.541C43.9355 256.541 42.7461 257.73 42.7461 259.189C42.7461 260.664 43.9355 261.837 45.3945 261.837C46.8535 261.837 48.0429 260.648 48.0429 259.189C48.0429 257.73 46.8535 256.541 45.3945 256.541Z" fill="#BCBDBB"/>
<path d="M45.3945 238.844C43.9355 238.844 42.7461 240.033 42.7461 241.492C42.7461 242.967 43.9355 244.14 45.3945 244.14C46.8535 244.14 48.0429 242.951 48.0429 241.492C48.0429 240.033 46.8535 238.844 45.3945 238.844Z" fill="#BCBDBB"/>
<path d="M63.0937 274.238C61.6347 274.238 60.4453 275.427 60.4453 276.886C60.4453 278.36 61.6347 279.534 63.0937 279.534C64.5527 279.534 65.7421 278.345 65.7421 276.886C65.7421 275.427 64.5527 274.238 63.0937 274.238Z" fill="#BCBDBB"/>
<path d="M54.2441 265.389C52.7851 265.389 51.5957 266.578 51.5957 268.037C51.5957 269.512 52.7851 270.686 54.2441 270.686C55.7031 270.686 56.8925 269.496 56.8925 268.037C56.8925 266.578 55.7031 265.389 54.2441 265.389Z" fill="#BCBDBB"/>
<path d="M27.6972 8.84842C26.2382 8.84842 25.0488 10.0377 25.0488 11.4966C25.0488 12.9713 26.2382 14.1448 27.6972 14.1448C29.1562 14.1448 30.3456 12.9555 30.3456 11.4966C30.3615 10.0377 29.1721 8.84842 27.6972 8.84842Z" fill="#BCBDBB"/>
<path d="M9.99797 8.84842C8.53898 8.84842 7.34961 10.0377 7.34961 11.4966C7.34961 12.9713 8.53898 14.1448 9.99797 14.1448C11.457 14.1448 12.6464 12.9555 12.6464 11.4966C12.6622 10.0377 11.4728 8.84842 9.99797 8.84842Z" fill="#BCBDBB"/>
<path d="M27.6972 44.2262C26.2382 44.2262 25.0488 45.4155 25.0488 46.8744C25.0488 48.3492 26.2382 49.5226 27.6972 49.5226C29.1562 49.5226 30.3456 48.3333 30.3456 46.8744C30.3615 45.4155 29.1721 44.2262 27.6972 44.2262Z" fill="#BCBDBB"/>
<path d="M36.5468 35.3778C35.0878 35.3778 33.8984 36.5671 33.8984 38.026C33.8984 39.5007 35.0878 40.6742 36.5468 40.6742C38.0058 40.6742 39.1952 39.4849 39.1952 38.026C39.1952 36.5671 38.0058 35.3778 36.5468 35.3778Z" fill="#BCBDBB"/>
<path d="M18.8476 17.6968C17.3886 17.6968 16.1992 18.8861 16.1992 20.345C16.1992 21.8198 17.3886 22.9932 18.8476 22.9932C20.3066 22.9932 21.496 21.8039 21.496 20.345C21.5118 18.8861 20.3225 17.6968 18.8476 17.6968Z" fill="#BCBDBB"/>
<path d="M9.99797 44.2262C8.53898 44.2262 7.34961 45.4155 7.34961 46.8744C7.34961 48.3492 8.53898 49.5226 9.99797 49.5226C11.457 49.5226 12.6464 48.3333 12.6464 46.8744C12.6622 45.4155 11.4728 44.2262 9.99797 44.2262Z" fill="#BCBDBB"/>
<path d="M27.6972 79.6199C26.2382 79.6199 25.0488 80.8092 25.0488 82.2681C25.0488 83.7428 26.2382 84.9163 27.6972 84.9163C29.1562 84.9163 30.3456 83.727 30.3456 82.2681C30.3615 80.8092 29.1721 79.6199 27.6972 79.6199Z" fill="#BCBDBB"/>
<path d="M36.5468 70.7715C35.0878 70.7715 33.8984 71.9608 33.8984 73.4197C33.8984 74.8944 35.0878 76.0679 36.5468 76.0679C38.0058 76.0679 39.1952 74.8786 39.1952 73.4197C39.1952 71.9608 38.0058 70.7715 36.5468 70.7715Z" fill="#BCBDBB"/>
<path d="M18.8476 70.7715C17.3886 70.7715 16.1992 71.9608 16.1992 73.4197C16.1992 74.8944 17.3886 76.0679 18.8476 76.0679C20.3066 76.0679 21.496 74.8786 21.496 73.4197C21.5118 71.9608 20.3225 70.7715 18.8476 70.7715Z" fill="#BCBDBB"/>
<path d="M9.99797 79.6199C8.53898 79.6199 7.34961 80.8092 7.34961 82.2681C7.34961 83.7428 8.53898 84.9163 9.99797 84.9163C11.457 84.9163 12.6464 83.727 12.6464 82.2681C12.6622 80.8092 11.4728 79.6199 9.99797 79.6199Z" fill="#BCBDBB"/>
<path d="M9.99797 61.9231C8.53898 61.9231 7.34961 63.1124 7.34961 64.5713C7.34961 66.046 8.53898 67.2194 9.99797 67.2194C11.457 67.2194 12.6464 66.0301 12.6464 64.5713C12.6622 63.1124 11.4728 61.9231 9.99797 61.9231Z" fill="#BCBDBB"/>
<path d="M27.6972 114.998C26.2382 114.998 25.0488 116.187 25.0488 117.646C25.0488 119.121 26.2382 120.294 27.6972 120.294C29.1562 120.294 30.3456 119.105 30.3456 117.646C30.3615 116.187 29.1721 114.998 27.6972 114.998Z" fill="#BCBDBB"/>
<path d="M27.6972 97.3009C26.2382 97.3009 25.0488 98.4902 25.0488 99.9491C25.0488 101.424 26.2382 102.597 27.6972 102.597C29.1562 102.597 30.3456 101.408 30.3456 99.9491C30.3615 98.4902 29.1721 97.3009 27.6972 97.3009Z" fill="#BCBDBB"/>
<path d="M36.5468 106.149C35.0878 106.149 33.8984 107.339 33.8984 108.798C33.8984 110.272 35.0878 111.446 36.5468 111.446C38.0058 111.446 39.1952 110.256 39.1952 108.798C39.1952 107.339 38.0058 106.149 36.5468 106.149Z" fill="#BCBDBB"/>
<path d="M18.8476 111.462C20.3103 111.462 21.496 110.276 21.496 108.813C21.496 107.351 20.3103 106.165 18.8476 106.165C17.385 106.165 16.1992 107.351 16.1992 108.813C16.1992 110.276 17.385 111.462 18.8476 111.462Z" fill="#BCBDBB"/>
<path d="M36.5468 88.4683C35.0878 88.4683 33.8984 89.6576 33.8984 91.1165C33.8984 92.5913 35.0878 93.7647 36.5468 93.7647C38.0058 93.7647 39.1952 92.5754 39.1952 91.1165C39.1952 89.6418 38.0058 88.4683 36.5468 88.4683Z" fill="#BCBDBB"/>
<path d="M18.8476 88.4683C17.3886 88.4683 16.1992 89.6576 16.1992 91.1165C16.1992 92.5913 17.3886 93.7647 18.8476 93.7647C20.3066 93.7647 21.496 92.5754 21.496 91.1165C21.5118 89.6418 20.3225 88.4683 18.8476 88.4683Z" fill="#BCBDBB"/>
<path d="M9.99797 114.998C8.53898 114.998 7.34961 116.187 7.34961 117.646C7.34961 119.121 8.53898 120.294 9.99797 120.294C11.457 120.294 12.6464 119.105 12.6464 117.646C12.6622 116.187 11.4728 114.998 9.99797 114.998Z" fill="#BCBDBB"/>
<path d="M9.99797 97.3009C8.53898 97.3009 7.34961 98.4902 7.34961 99.9491C7.34961 101.424 8.53898 102.597 9.99797 102.597C11.457 102.597 12.6464 101.408 12.6464 99.9491C12.6622 98.4902 11.4728 97.3009 9.99797 97.3009Z" fill="#BCBDBB"/>
<path d="M27.6972 150.391C26.2382 150.391 25.0488 151.581 25.0488 153.04C25.0488 154.514 26.2382 155.688 27.6972 155.688C29.1562 155.688 30.3456 154.498 30.3456 153.04C30.3615 151.581 29.1721 150.391 27.6972 150.391Z" fill="#BCBDBB"/>
<path d="M27.6972 132.695C26.2382 132.695 25.0488 133.884 25.0488 135.343C25.0488 136.817 26.2382 137.991 27.6972 137.991C29.1562 137.991 30.3456 136.802 30.3456 135.343C30.3615 133.884 29.1721 132.695 27.6972 132.695Z" fill="#BCBDBB"/>
<path d="M36.5468 141.543C35.0878 141.543 33.8984 142.732 33.8984 144.191C33.8984 145.666 35.0878 146.839 36.5468 146.839C38.0058 146.839 39.1952 145.65 39.1952 144.191C39.1952 142.732 38.0058 141.543 36.5468 141.543Z" fill="#BCBDBB"/>
<path d="M18.8476 141.543C17.3886 141.543 16.1992 142.732 16.1992 144.191C16.1992 145.666 17.3886 146.839 18.8476 146.839C20.3066 146.839 21.496 145.65 21.496 144.191C21.5118 142.732 20.3225 141.543 18.8476 141.543Z" fill="#BCBDBB"/>
<path d="M36.5468 123.846C35.0878 123.846 33.8984 125.035 33.8984 126.494C33.8984 127.969 35.0878 129.143 36.5468 129.143C38.0058 129.143 39.1952 127.953 39.1952 126.494C39.1952 125.035 38.0058 123.846 36.5468 123.846Z" fill="#BCBDBB"/>
<path d="M18.8476 129.143C20.3103 129.143 21.496 127.957 21.496 126.494C21.496 125.032 20.3103 123.846 18.8476 123.846C17.385 123.846 16.1992 125.032 16.1992 126.494C16.1992 127.957 17.385 129.143 18.8476 129.143Z" fill="#BCBDBB"/>
<path d="M9.99797 150.391C8.53898 150.391 7.34961 151.581 7.34961 153.04C7.34961 154.514 8.53898 155.688 9.99797 155.688C11.457 155.688 12.6464 154.498 12.6464 153.04C12.6622 151.581 11.4728 150.391 9.99797 150.391Z" fill="#BCBDBB"/>
<path d="M9.99797 132.695C8.53898 132.695 7.34961 133.884 7.34961 135.343C7.34961 136.817 8.53898 137.991 9.99797 137.991C11.457 137.991 12.6464 136.802 12.6464 135.343C12.6622 133.884 11.4728 132.695 9.99797 132.695Z" fill="#BCBDBB"/>
<path d="M27.6972 185.769C26.2382 185.769 25.0488 186.959 25.0488 188.417C25.0488 189.892 26.2382 191.066 27.6972 191.066C29.1562 191.066 30.3456 189.876 30.3456 188.417C30.3615 186.959 29.1721 185.769 27.6972 185.769Z" fill="#BCBDBB"/>
<path d="M27.6972 168.072C26.2382 168.072 25.0488 169.262 25.0488 170.721C25.0488 172.195 26.2382 173.369 27.6972 173.369C29.1562 173.369 30.3456 172.179 30.3456 170.721C30.3615 169.262 29.1721 168.072 27.6972 168.072Z" fill="#BCBDBB"/>
<path d="M36.5468 176.921C35.0878 176.921 33.8984 178.11 33.8984 179.569C33.8984 181.044 35.0878 182.217 36.5468 182.217C38.0058 182.217 39.1952 181.028 39.1952 179.569C39.1952 178.11 38.0058 176.921 36.5468 176.921Z" fill="#BCBDBB"/>
<path d="M18.8476 176.921C17.3886 176.921 16.1992 178.11 16.1992 179.569C16.1992 181.044 17.3886 182.217 18.8476 182.217C20.3066 182.217 21.496 181.028 21.496 179.569C21.5118 178.11 20.3225 176.921 18.8476 176.921Z" fill="#BCBDBB"/>
<path d="M36.5468 159.224C35.0878 159.224 33.8984 160.413 33.8984 161.872C33.8984 163.347 35.0878 164.52 36.5468 164.52C38.0058 164.52 39.1952 163.331 39.1952 161.872C39.1952 160.413 38.0058 159.224 36.5468 159.224Z" fill="#BCBDBB"/>
<path d="M18.8476 164.536C20.3103 164.536 21.496 163.351 21.496 161.888C21.496 160.425 20.3103 159.24 18.8476 159.24C17.385 159.24 16.1992 160.425 16.1992 161.888C16.1992 163.351 17.385 164.536 18.8476 164.536Z" fill="#BCBDBB"/>
<path d="M9.99797 185.769C8.53898 185.769 7.34961 186.959 7.34961 188.417C7.34961 189.892 8.53898 191.066 9.99797 191.066C11.457 191.066 12.6464 189.876 12.6464 188.417C12.6622 186.959 11.4728 185.769 9.99797 185.769Z" fill="#BCBDBB"/>
<path d="M9.99797 168.072C8.53898 168.072 7.34961 169.262 7.34961 170.721C7.34961 172.195 8.53898 173.369 9.99797 173.369C11.457 173.369 12.6464 172.179 12.6464 170.721C12.6622 169.262 11.4728 168.072 9.99797 168.072Z" fill="#BCBDBB"/>
<path d="M27.6972 221.147C26.2382 221.147 25.0488 222.336 25.0488 223.795C25.0488 225.27 26.2382 226.443 27.6972 226.443C29.1562 226.443 30.3456 225.254 30.3456 223.795C30.3615 222.336 29.1721 221.147 27.6972 221.147Z" fill="#BCBDBB"/>
<path d="M27.6972 203.466C26.2382 203.466 25.0488 204.655 25.0488 206.114C25.0488 207.589 26.2382 208.762 27.6972 208.762C29.1562 208.762 30.3456 207.573 30.3456 206.114C30.3615 204.655 29.1721 203.466 27.6972 203.466Z" fill="#BCBDBB"/>
<path d="M36.5468 212.314C35.0878 212.314 33.8984 213.504 33.8984 214.963C33.8984 216.437 35.0878 217.611 36.5468 217.611C38.0058 217.611 39.1952 216.422 39.1952 214.963C39.1952 213.504 38.0058 212.314 36.5468 212.314Z" fill="#BCBDBB"/>
<path d="M18.8476 217.611C20.3103 217.611 21.496 216.425 21.496 214.963C21.496 213.5 20.3103 212.314 18.8476 212.314C17.385 212.314 16.1992 213.5 16.1992 214.963C16.1992 216.425 17.385 217.611 18.8476 217.611Z" fill="#BCBDBB"/>
<path d="M36.5468 194.618C35.0878 194.618 33.8984 195.807 33.8984 197.266C33.8984 198.741 35.0878 199.914 36.5468 199.914C38.0058 199.914 39.1952 198.725 39.1952 197.266C39.1952 195.807 38.0058 194.618 36.5468 194.618Z" fill="#BCBDBB"/>
<path d="M18.8476 194.618C17.3886 194.618 16.1992 195.807 16.1992 197.266C16.1992 198.741 17.3886 199.914 18.8476 199.914C20.3066 199.914 21.496 198.725 21.496 197.266C21.5118 195.807 20.3225 194.618 18.8476 194.618Z" fill="#BCBDBB"/>
<path d="M9.99797 221.147C8.53898 221.147 7.34961 222.336 7.34961 223.795C7.34961 225.27 8.53898 226.443 9.99797 226.443C11.457 226.443 12.6464 225.254 12.6464 223.795C12.6622 222.336 11.4728 221.147 9.99797 221.147Z" fill="#BCBDBB"/>
<path d="M9.99797 203.466C8.53898 203.466 7.34961 204.655 7.34961 206.114C7.34961 207.589 8.53898 208.762 9.99797 208.762C11.457 208.762 12.6464 207.573 12.6464 206.114C12.6622 204.655 11.4728 203.466 9.99797 203.466Z" fill="#BCBDBB"/>
<path d="M36.5468 229.995C35.0878 229.995 33.8984 231.185 33.8984 232.644C33.8984 234.118 35.0878 235.292 36.5468 235.292C38.0058 235.292 39.1952 234.103 39.1952 232.644C39.1952 231.185 38.0058 229.995 36.5468 229.995Z" fill="#BCBDBB"/>
<path d="M18.8476 229.995C17.3886 229.995 16.1992 231.185 16.1992 232.644C16.1992 234.118 17.3886 235.292 18.8476 235.292C20.3066 235.292 21.496 234.103 21.496 232.644C21.5118 231.185 20.3225 229.995 18.8476 229.995Z" fill="#BCBDBB"/>
<path d="M9.99797 238.844C8.53898 238.844 7.34961 240.033 7.34961 241.492C7.34961 242.967 8.53898 244.14 9.99797 244.14C11.457 244.14 12.6464 242.951 12.6464 241.492C12.6622 240.033 11.4728 238.844 9.99797 238.844Z" fill="#BCBDBB"/>
<path d="M1.16594 17.6968C-0.293055 17.6968 -1.48242 18.8861 -1.48242 20.345C-1.48242 21.8198 -0.293055 22.9932 1.16594 22.9932C2.62493 22.9932 3.81434 21.8039 3.81434 20.345C3.81434 18.8861 2.62493 17.6968 1.16594 17.6968Z" fill="#BCBDBB"/>
<path d="M1.16594 70.7715C-0.293055 70.7715 -1.48242 71.9608 -1.48242 73.4197C-1.48242 74.8944 -0.293055 76.0679 1.16594 76.0679C2.62493 76.0679 3.81434 74.8786 3.81434 73.4197C3.81434 71.9608 2.62493 70.7715 1.16594 70.7715Z" fill="#BCBDBB"/>
<path d="M1.16594 58.371C2.6286 58.371 3.81434 57.1854 3.81434 55.7228C3.81434 54.2603 2.6286 53.0747 1.16594 53.0747C-0.296727 53.0747 -1.48242 54.2603 -1.48242 55.7228C-1.48242 57.1854 -0.296727 58.371 1.16594 58.371Z" fill="#BCBDBB"/>
<path d="M1.16594 111.462C2.6286 111.462 3.81434 110.276 3.81434 108.813C3.81434 107.351 2.6286 106.165 1.16594 106.165C-0.296727 106.165 -1.48242 107.351 -1.48242 108.813C-1.48242 110.276 -0.296727 111.462 1.16594 111.462Z" fill="#BCBDBB"/>
<path d="M1.16594 88.4683C-0.293055 88.4683 -1.48242 89.6576 -1.48242 91.1165C-1.48242 92.5913 -0.293055 93.7647 1.16594 93.7647C2.62493 93.7647 3.81434 92.5754 3.81434 91.1165C3.81434 89.6418 2.62493 88.4683 1.16594 88.4683Z" fill="#BCBDBB"/>
<path d="M1.16594 141.543C-0.293055 141.543 -1.48242 142.732 -1.48242 144.191C-1.48242 145.666 -0.293055 146.839 1.16594 146.839C2.62493 146.839 3.81434 145.65 3.81434 144.191C3.81434 142.732 2.62493 141.543 1.16594 141.543Z" fill="#BCBDBB"/>
<path d="M1.16594 129.143C2.6286 129.143 3.81434 127.957 3.81434 126.494C3.81434 125.032 2.6286 123.846 1.16594 123.846C-0.296727 123.846 -1.48242 125.032 -1.48242 126.494C-1.48242 127.957 -0.296727 129.143 1.16594 129.143Z" fill="#BCBDBB"/>
<path d="M1.16594 176.921C-0.293055 176.921 -1.48242 178.11 -1.48242 179.569C-1.48242 181.044 -0.293055 182.217 1.16594 182.217C2.62493 182.217 3.81434 181.028 3.81434 179.569C3.81434 178.11 2.62493 176.921 1.16594 176.921Z" fill="#BCBDBB"/>
<path d="M1.16594 217.611C2.6286 217.611 3.81434 216.425 3.81434 214.963C3.81434 213.5 2.6286 212.314 1.16594 212.314C-0.296727 212.314 -1.48242 213.5 -1.48242 214.963C-1.48242 216.425 -0.296727 217.611 1.16594 217.611Z" fill="#BCBDBB"/>
<path d="M1.16594 194.618C-0.293055 194.618 -1.48242 195.807 -1.48242 197.266C-1.48242 198.741 -0.293055 199.914 1.16594 199.914C2.62493 199.914 3.81434 198.725 3.81434 197.266C3.81434 195.807 2.62493 194.618 1.16594 194.618Z" fill="#BCBDBB"/>
<path d="M1.16594 247.692C-0.293055 247.692 -1.48242 248.882 -1.48242 250.341C-1.48242 251.815 -0.293055 252.989 1.16594 252.989C2.62493 252.989 3.81434 251.799 3.81434 250.341C3.81434 248.882 2.62493 247.692 1.16594 247.692Z" fill="#BCBDBB"/>
<path d="M1.16594 229.995C-0.293055 229.995 -1.48242 231.185 -1.48242 232.644C-1.48242 234.118 -0.293055 235.292 1.16594 235.292C2.62493 235.292 3.81434 234.103 3.81434 232.644C3.81434 231.185 2.62493 229.995 1.16594 229.995Z" fill="#BCBDBB"/>
</g>
</svg>
