<svg width="159" height="588" viewBox="0 0 159 588" fill="none" xmlns="http://www.w3.org/2000/svg">
<g opacity="0.1">
<path d="M-177.986 142.134L56.5195 359.493L-97.1245 578.09L-331.63 360.732L-177.986 142.134Z" fill="white"/>
<path d="M-335.255 365.693L-100.742 583.058C-98.1427 585.468 -94.3776 585.142 -92.4055 582.336L61.1851 363.814C63.1572 361.008 62.6402 356.713 60.0405 354.303L-174.472 136.938C-177.072 134.528 -180.837 134.854 -182.809 137.66L-336.458 356.265C-338.353 359.141 -337.855 363.283 -335.255 365.693ZM-98.2724 568.584L-323.304 360.007L-176.847 151.636L48.1839 360.213L-98.2724 568.584Z" fill="#282727"/>
<path d="M13.3751 145.587C-24.1773 110.783 -85.8209 127.108 -124.382 181.966L-153.386 155.085C-104.171 85.0713 -20.8488 68.5694 32.6557 118.158C86.2366 167.816 89.6969 264.749 40.4821 334.763L11.4782 307.882C50.0395 253.024 50.9275 180.39 13.3751 145.587Z" fill="#706F6F"/>
<path d="M-157.052 160.271L-128.044 187.156C-125.448 189.562 -121.69 189.236 -119.721 186.435C-83.1808 134.452 -25.0766 118.509 9.8093 150.842C44.6953 183.175 43.3858 251.755 6.84589 303.738C4.87702 306.539 5.39312 310.827 7.98857 313.233L36.9965 340.117C39.5919 342.523 43.3509 342.197 45.3197 339.396C96.4524 266.653 92.3808 165.195 36.3495 113.264C-19.7581 61.2629 -106.909 78.1755 -158.042 150.919C-160.163 153.578 -159.647 157.866 -157.052 160.271ZM-125.52 172.625L-145.062 154.513C-97.4853 91.6713 -20.5264 77.4213 29.0162 123.338C78.5588 169.255 82.7461 258.712 39.2152 325.303L19.673 307.191C56.6971 250.215 55.7689 176.567 16.9135 140.556C-21.9604 104.391 -84.8315 119.045 -125.52 172.625Z" fill="#282727"/>
</g>
</svg>
